G04 DipTrace 3.3.1.1*
G04 board_outline_gamepad_speedlink2dendy.gml*
%MOMM*%
G04 #@! TF.FileFunction,Profile*
G04 #@! TF.Part,Single*
%ADD11C,0.14*%
%FSLAX35Y35*%
G04*
G71*
G90*
G75*
G01*
G04 BoardOutline*
%LPD*%
X1000000Y1301657D2*
D11*
X1301657Y1000000D1*
X3286000D1*
G02X6270500Y1000000I1492250J-970239D01*
G01*
X7715127D1*
G02X10715500Y1000000I1500187J-985023D01*
G01*
X13207873D1*
X13509500Y1301627D1*
Y3603500D1*
X13001500D1*
Y4111500D1*
X10223373D1*
G02X9715373Y4111500I-254000J0D01*
G01*
X7715830Y4111827D1*
G02X7207777Y4111827I-254027J0D01*
G01*
X4111827D1*
G02X3603773Y4111827I-254027J0D01*
G01*
X1508053D1*
Y3603773D1*
X1000000D1*
Y1301657D1*
Y4413483D2*
X1301657Y4111827D1*
X3286000D1*
G02X6270500Y4111827I1492250J-970239D01*
G01*
X7715127D1*
G02X10715500Y4111827I1500187J-985023D01*
G01*
X13207873D1*
X13509500Y4413453D1*
Y6715327D1*
X13001500D1*
Y7223327D1*
X10223373D1*
G02X9715373Y7223327I-254000J0D01*
G01*
X7715830Y7223653D1*
G02X7207777Y7223653I-254027J0D01*
G01*
X4111827D1*
G02X3603773Y7223653I-254027J0D01*
G01*
X1508053D1*
Y6715600D1*
X1000000D1*
Y4413483D1*
Y7223653D2*
X13509500D1*
Y1000000D1*
X1000000D1*
Y7223653D1*
M02*
