G04 DipTrace 3.3.1.1*
G04 bottom_mask_gamepad_speedlink2dendy.gbs*
%MOMM*%
G04 #@! TF.FileFunction,Soldermask,Bot*
G04 #@! TF.Part,Single*
%ADD38O,2.2X3.2*%
%ADD44R,1.724X1.724*%
%ADD46C,1.724*%
%ADD48O,2.2X4.2*%
%ADD50R,2.2X4.2*%
%ADD54R,1.7X1.5*%
%ADD56C,2.2*%
%FSLAX35Y35*%
G04*
G71*
G90*
G75*
G01*
G04 BotMask*
%LPD*%
D56*
X3381497Y1968460D3*
Y3047960D3*
X1587437Y2000210D3*
Y3079710D3*
X1952597Y1603313D3*
X3032097D3*
X1952630Y3413240D3*
X3032130D3*
X8921623Y2524000D3*
X7842123D3*
X4921557Y2540040D3*
X6001057D3*
X12050177Y1587403D3*
X10970677D3*
X13366623Y2603373D3*
X12287123D3*
X10700710Y2603483D3*
X9621210D3*
X12034300Y3508440D3*
X10954800D3*
D54*
X6191923Y3556403D3*
Y3746403D3*
X5969390Y3556143D3*
Y3746143D3*
X5746857Y3556403D3*
Y3746403D3*
D50*
X5350100Y3778417D3*
D48*
X5096100D3*
X4842100D3*
X4588100D3*
X4334100D3*
D46*
X7239530D3*
X7064887Y3984813D3*
X6445127Y3301873D3*
D44*
X7509433Y3699033D3*
D38*
X8690607Y3746663D3*
X8208007D3*
D56*
X3381497Y5080287D3*
Y6159787D3*
X1587437Y5112037D3*
Y6191537D3*
X1952597Y4715140D3*
X3032097D3*
X1952630Y6525067D3*
X3032130D3*
X8921623Y5635827D3*
X7842123D3*
X4921557Y5651867D3*
X6001057D3*
X12050177Y4699230D3*
X10970677D3*
X13366623Y5715200D3*
X12287123D3*
X10700710Y5715310D3*
X9621210D3*
X12034300Y6620267D3*
X10954800D3*
D54*
X6191923Y6668230D3*
Y6858230D3*
X5969390Y6667970D3*
Y6857970D3*
X5746857Y6668230D3*
Y6858230D3*
D50*
X5350100Y6890243D3*
D48*
X5096100D3*
X4842100D3*
X4588100D3*
X4334100D3*
D46*
X7239530D3*
X7064887Y7096640D3*
X6445127Y6413700D3*
D44*
X7509433Y6810860D3*
D38*
X8690607Y6858490D3*
X8208007D3*
M02*
