M48
METRIC,0000.00
T01C0.3
T02C0.8
T03C1.0
T04C1.2
%
T03
X+003381Y+001968
X+003381Y+003048
X+001587Y+002000
X+001587Y+003080
X+001953Y+001603
X+003032Y+001603
X+001953Y+003413
X+003032Y+003413
X+008922Y+002524
X+007842Y+002524
X+004922Y+002540
X+006001Y+002540
X+012050Y+001587
X+010971Y+001587
X+013367Y+002603
X+012287Y+002603
X+010701Y+002603
X+009621Y+002603
X+012034Y+003508
X+010955Y+003508
T04
X+005350Y+003778
X+005096Y+003778
X+004842Y+003778
X+004588Y+003778
X+004334Y+003778
T02
X+007240Y+003778
X+007065Y+003985
X+006445Y+003302
X+007509Y+003699
T01
X+009207Y+002905
X+010684Y+003000
X+011382Y+002730
X+010239Y+003667
X+010795Y+001127
X+009239Y+001952
X+007779Y+003572
X+009113Y+003747
X+009113Y+003572
X+007779Y+003747
X+008446Y+003794
X+008446Y+003588
X+008446Y+004001
X+002476Y+002603
X+002032Y+003016
X+002064Y+002095
X+002889Y+002095
X+001159Y+003461
X+006557Y+003509
X+006382Y+003112
X+002968Y+003016
X+003873Y+003397
X+005366Y+003492
X+012541Y+001540
X+006556Y+002572
X+006985Y+001127
X+006382Y+001127
X+007620Y+001127
X+007461Y+003032
X+007144Y+002921
X+012462Y+003334
X+005524Y+003524
X+001111Y+001365
X+001651Y+003969
X+006763Y+004000
X+005572Y+004000
X+006191Y+004000
X+012843Y+003969
X+013367Y+003476
X+013128Y+001127
X+013383Y+001397
X+001381Y+001111
X+003207Y+001111
X+004778Y+001952
X+008175Y+001905
X+005683Y+001889
X+006937Y+002222
T03
X+008691Y+003747
X+008208Y+003747
T01
X+002476Y+002318
X+004238Y+003093
X+004127Y+003429
X+007287Y+002778
X+009621Y+003588
X+006005Y+003060
X+006020Y+003220
X+006143Y+002921
X+006796Y+002652
X+006876Y+002746
X+006795Y+003524
T03
X+003381Y+005080
X+003381Y+006160
X+001587Y+005112
X+001587Y+006192
X+001953Y+004715
X+003032Y+004715
X+001953Y+006525
X+003032Y+006525
X+008922Y+005636
X+007842Y+005636
X+004922Y+005652
X+006001Y+005652
X+012050Y+004699
X+010971Y+004699
X+013367Y+005715
X+012287Y+005715
X+010701Y+005715
X+009621Y+005715
X+012034Y+006620
X+010955Y+006620
T04
X+005350Y+006890
X+005096Y+006890
X+004842Y+006890
X+004588Y+006890
X+004334Y+006890
T02
X+007240Y+006890
X+007065Y+007097
X+006445Y+006414
X+007509Y+006811
T01
X+009207Y+006017
X+010684Y+006112
X+011382Y+005842
X+010239Y+006779
X+010795Y+004239
X+009239Y+005064
X+007779Y+006684
X+009113Y+006858
X+009113Y+006684
X+007779Y+006858
X+008446Y+006906
X+008446Y+006700
X+008446Y+007113
X+002476Y+005715
X+002032Y+006128
X+002064Y+005207
X+002889Y+005207
X+001159Y+006572
X+006557Y+006620
X+006382Y+006223
X+002968Y+006128
X+003873Y+006509
X+005366Y+006604
X+012541Y+004652
X+006556Y+005683
X+006985Y+004239
X+006382Y+004239
X+007620Y+004239
X+007461Y+006144
X+007144Y+006033
X+012462Y+006445
X+005524Y+006636
X+001111Y+004477
X+001651Y+007080
X+006763Y+007112
X+005572Y+007112
X+006191Y+007112
X+012843Y+007080
X+013367Y+006588
X+013128Y+004239
X+013383Y+004509
X+001381Y+004223
X+003207Y+004223
X+004778Y+005064
X+008175Y+005017
X+005683Y+005001
X+006937Y+005334
T03
X+008691Y+006858
X+008208Y+006858
T01
X+002476Y+005429
X+004238Y+006205
X+004127Y+006541
X+007287Y+005890
X+009621Y+006699
X+006005Y+006171
X+006020Y+006331
X+006143Y+006033
X+006796Y+005764
X+006876Y+005858
X+006795Y+006636
T00
M30
