G04 DipTrace 3.3.1.1*
G04 top_gamepad_speedlink2dendy.gtl*
%MOMM*%
G04 #@! TF.FileFunction,Copper,L1,Top*
G04 #@! TF.Part,Single*
%ADD15C,1.0*%
%ADD19C,0.3*%
%ADD34C,1.2*%
%ADD35C,0.8*%
G04 #@! TA.AperFunction,Nonconductor*
%ADD14C,0.5*%
G04 #@! TA.AperFunction,CopperBalancing*
%ADD16C,0.635*%
G04 #@! TA.AperFunction,ComponentPad*
%ADD21C,2.0*%
%ADD24R,1.3X1.5*%
G04 #@! TA.AperFunction,ComponentPad*
%ADD25R,2.0X4.0*%
%ADD26O,2.0X4.0*%
%ADD27C,1.524*%
%ADD28R,1.524X1.524*%
%ADD30R,0.5X1.7*%
%ADD31R,1.7X0.5*%
G04 #@! TA.AperFunction,ComponentPad*
%ADD32O,2.0X3.0*%
G04 #@! TA.AperFunction,ViaPad*
%ADD33C,0.7*%
%FSLAX35Y35*%
G04*
G71*
G90*
G75*
G01*
G04 Top*
%LPD*%
X6175793Y3379650D2*
D14*
X5995117D1*
G03X5889500Y3274030I2J-105619D01*
G01*
X5889503Y3247240D1*
G02X5785417Y3143127I-104088J-25D01*
G01*
X4288213Y3143120D1*
G03X4238500Y3093407I-2J-49711D01*
G01*
X6175793Y3619650D2*
X5765503D1*
G03X5635500Y3489650I4J-130008D01*
G01*
G02X5527100Y3381250I-108401J1D01*
G01*
X4175000D1*
G02X4127377Y3428873I-1J47623D01*
G01*
X6175793Y3459650D2*
X5916853D1*
G03X5810123Y3352923I-2J-106728D01*
G01*
G02X5675747Y3222500I-134421J4059D01*
G01*
X3556037D1*
G03X3381497Y3047960I-5J-174535D01*
G01*
X6175793Y3539650D2*
X5838547D1*
G03X5730750Y3431850I1J-107798D01*
G01*
G02X5596803Y3301880I-133989J4081D01*
G01*
X3143493Y3301873D1*
G02X3032130Y3413240I3J111366D01*
G01*
X7015793Y3299650D2*
X10609777D1*
G02X10985377Y2924050I-9J-375609D01*
G01*
Y2777997D1*
G03X11160000Y2603373I174626J2D01*
G01*
X12287123D1*
X7015793Y3219650D2*
X10559603D1*
G02X10890127Y2889123I-12J-330536D01*
G01*
Y1667957D1*
G03X10970677Y1587403I80547J-6D01*
G01*
X7015793Y3139650D2*
X7210600D1*
G02X7286500Y3063750I2J-75898D01*
G01*
Y2778000D1*
X7015793Y3059650D2*
Y2699457D1*
G03X7191103Y2524147I175308J-2D01*
G01*
X7842123Y2524000D1*
X7015793Y3379650D2*
X10841887D1*
G03X10986550Y3508440I-13061J160312D01*
G01*
X10954800D1*
X7015793Y3459650D2*
X9539773D1*
G03X9620127Y3540000I0J80353D01*
G01*
X9621210Y3587623D1*
X6475793Y2919650D2*
Y2652083D1*
G03X6556250Y2571623I80462J2D01*
G01*
X6635793Y2919650D2*
Y2651167D1*
G02X6556250Y2571623I-79545J2D01*
G01*
X7015793Y3619650D2*
X7080763D1*
G03X7239530Y3778417I-6J158772D01*
G01*
X7015793Y3539650D2*
X7350050D1*
G03X7509433Y3699033I-4J159387D01*
G01*
X6175793Y3299650D2*
X6427353D1*
X6445127Y3301873D1*
X6875793Y3759650D2*
Y3837123D1*
G02X7023483Y3984813I147687J3D01*
G01*
X7064887D1*
X6175793Y3059650D2*
X6004727D1*
X6175793Y3219650D2*
X6020110D1*
X6143500Y2920873D2*
X6314367D1*
G02X6315793Y2919650I295J-1099D01*
G01*
X6795793D2*
Y2651983D1*
X7969597Y3746403D2*
X8207747D1*
X8208007Y3746663D1*
X8690607D2*
X8922457D1*
X6875793Y2919650D2*
Y2746250D1*
X6715793Y2919650D2*
Y3143157D1*
G03X6636217Y3222733I-79998J-421D01*
G01*
G03X6555793Y3142310I-426J-79998D01*
G01*
Y2919650D1*
X6794983Y3524390D2*
Y3276950D1*
G02X6740770Y3222733I-54206J-10D01*
G01*
X6636217D1*
X6795793Y3759650D2*
X6794983Y3524390D1*
D33*
X4238500Y3093407D3*
X4127377Y3428873D3*
X7286500Y2778000D3*
X9621210Y3587623D3*
X6004727Y3059650D3*
X6020110Y3219650D3*
X6143500Y2920873D3*
X6795793Y2651983D3*
X6875793Y2746250D3*
X6794983Y3524390D3*
D3*
X9207373Y2905000D3*
X10683750Y3000250D3*
X11382250Y2730373D3*
X10239250Y3667000D3*
X10794873Y1127000D3*
X9239127Y1952500D3*
X7779337Y3572020D3*
X9112977Y3746663D3*
Y3572020D3*
X7779337Y3746663D3*
X8446157Y3794293D3*
Y3587897D3*
Y4000690D3*
X2476373Y2603373D3*
X1920750Y3095500D3*
X2063627Y2095373D3*
X2889127Y2095377D3*
X1158750Y3460627D3*
X6556833Y3508513D3*
X6382190Y3111597D3*
X3016125Y3032000D3*
X3873373Y3397127D3*
X5365627Y3492373D3*
X12541127Y1539750D3*
X6556250Y2571623D3*
X6984873Y1127000D3*
X6381627D3*
X7619873D3*
X7461127Y3032000D3*
X7143627Y2920877D3*
X12461750Y3333623D3*
X5524373Y3524127D3*
X1111127Y1365127D3*
X1650873Y3968627D3*
X6762627Y4000373D3*
X5572000D3*
X6191127D3*
X12842750Y3968627D3*
X13366627Y3476500D3*
X13128500Y1127000D3*
X13382500Y1396873D3*
X1381000Y1111123D3*
X3206627Y1111127D3*
X4778250Y1952500D3*
X8175500Y1904873D3*
X5683127Y1889000D3*
X6937250Y2222373D3*
X2476373Y2317627D3*
X1596193Y3966910D2*
D16*
X2293793D1*
X2691127D2*
X3551877D1*
X4163770D2*
X4420133D1*
X5540710D2*
X6795303D1*
X7767767D2*
X8131137D1*
X8284930D2*
X8613663D1*
X8767547D2*
X9663297D1*
X10275463D2*
X11109233D1*
X11879813D2*
X12913377D1*
X1596193Y3903743D2*
X2169833D1*
X2814993D2*
X3588337D1*
X4127313D2*
X4399170D1*
X5540710D2*
X6217163D1*
X8364317D2*
X8534273D1*
X9268120D2*
X9699757D1*
X10239003D2*
X11043973D1*
X11945163D2*
X12913377D1*
X1596193Y3840577D2*
X2089533D1*
X2895387D2*
X3658337D1*
X4057220D2*
X4397437D1*
X5540710D2*
X6217163D1*
X8393303D2*
X8505290D1*
X9268120D2*
X9769573D1*
X10169187D2*
X10998037D1*
X11991010D2*
X12913377D1*
X1596193Y3777410D2*
X2030747D1*
X2953993D2*
X4397437D1*
X5540710D2*
X6217163D1*
X8398680D2*
X8500003D1*
X9268120D2*
X10961760D1*
X12027287D2*
X12913377D1*
X1596193Y3714243D2*
X1984900D1*
X2999930D2*
X4397437D1*
X5540710D2*
X5677217D1*
X8398680D2*
X8500003D1*
X9268120D2*
X10933687D1*
X12055450D2*
X12913377D1*
X1596193Y3651077D2*
X1952817D1*
X3031920D2*
X4399533D1*
X5540710D2*
X5582790D1*
X8392937D2*
X8505653D1*
X9268120D2*
X9513817D1*
X9728587D2*
X10831787D1*
X12072493D2*
X12913377D1*
X1593640Y3587910D2*
X1925197D1*
X3097273D2*
X4421227D1*
X6351453D2*
X6679547D1*
X8363133D2*
X8535460D1*
X9268120D2*
X9495590D1*
X9746817D2*
X10782203D1*
X12085893D2*
X12915837D1*
X1531207Y3524743D2*
X1911253D1*
X3185230D2*
X4050080D1*
X4204697D2*
X4480017D1*
X4696153D2*
X4734040D1*
X4950177D2*
X4988063D1*
X6351453D2*
X6669340D1*
X9734970D2*
X10764887D1*
X12087990D2*
X12976997D1*
X1088147Y3461577D2*
X1899040D1*
X3216310D2*
X4006330D1*
X6351453D2*
X6422880D1*
X6467387D2*
X6679363D1*
X12087897D2*
X13421423D1*
X1088147Y3398410D2*
X1898947D1*
X6579683D2*
X6679363D1*
X12075957D2*
X13421423D1*
X1088147Y3335243D2*
X1900770D1*
X6608483D2*
X6679363D1*
X12062197D2*
X13421423D1*
X1088147Y3272077D2*
X1914170D1*
X12034760D2*
X13421423D1*
X1088147Y3208910D2*
X1449690D1*
X1725163D2*
X1930850D1*
X12003133D2*
X13421423D1*
X1088147Y3145743D2*
X1409040D1*
X1765813D2*
X1958923D1*
X3025813D2*
X3218923D1*
X6351453D2*
X6401643D1*
X11957287D2*
X12565563D1*
X13088133D2*
X13421423D1*
X1088147Y3082577D2*
X1364470D1*
X1826337D2*
X1994833D1*
X2989903D2*
X3194130D1*
X3568863D2*
X4113337D1*
X7401087D2*
X8156840D1*
X8606767D2*
X9799650D1*
X10522197D2*
X10659613D1*
X11899043D2*
X12465667D1*
X13187937D2*
X13421423D1*
X1088147Y3019410D2*
X1250173D1*
X1940633D2*
X2040770D1*
X2944057D2*
X3088947D1*
X3689993D2*
X4138583D1*
X4338407D2*
X5122777D1*
X5799930D2*
X5886123D1*
X7402183D2*
X8043453D1*
X8720243D2*
X9730380D1*
X10591557D2*
X10731437D1*
X11090763D2*
X11169757D1*
X11819200D2*
X12396397D1*
X13257390D2*
X13421423D1*
X1088147Y2956243D2*
X1173883D1*
X2016920D2*
X2105393D1*
X2879433D2*
X3000993D1*
X3777950D2*
X5047400D1*
X5875307D2*
X5938897D1*
X7402183D2*
X7967983D1*
X8795620D2*
X9679430D1*
X10642417D2*
X10763337D1*
X11099147D2*
X11291800D1*
X11697157D2*
X12345447D1*
X13308250D2*
X13421423D1*
X2074343Y2893077D2*
X2191253D1*
X2793667D2*
X2937647D1*
X3841297D2*
X4991617D1*
X5930997D2*
X6021110D1*
X7131480D2*
X7170823D1*
X7402183D2*
X7912203D1*
X8851493D2*
X9637413D1*
X10684527D2*
X10774000D1*
X11101063D2*
X12303337D1*
X13350450D2*
X13421423D1*
X2116727Y2829910D2*
X2337270D1*
X2647650D2*
X2888427D1*
X3890517D2*
X4945953D1*
X5976660D2*
X6059937D1*
X7131480D2*
X7170823D1*
X7402183D2*
X7866540D1*
X8897157D2*
X9609247D1*
X10712690D2*
X10774457D1*
X11101063D2*
X12275173D1*
X13378523D2*
X13421423D1*
X2148900Y2766743D2*
X2850693D1*
X3928250D2*
X4916787D1*
X6005827D2*
X6200120D1*
X7411570D2*
X7837463D1*
X8926323D2*
X9529403D1*
X10734473D2*
X10774457D1*
X11102337D2*
X12195510D1*
X2172507Y2703577D2*
X2822530D1*
X3956413D2*
X4891267D1*
X6092327D2*
X6680187D1*
X7131480D2*
X7186957D1*
X7386050D2*
X7794353D1*
X8951933D2*
X9460133D1*
X2188457Y2640410D2*
X2803023D1*
X3975920D2*
X4877777D1*
X6161960D2*
X6670707D1*
X7168757D2*
X7692907D1*
X8965333D2*
X9434340D1*
X2190280Y2577243D2*
X2790900D1*
X3987950D2*
X4867933D1*
X6187937D2*
X6696500D1*
X6895137D2*
X6928103D1*
X8975267D2*
X9432423D1*
X2189370Y2514077D2*
X2793453D1*
X3985397D2*
X4867933D1*
X6189850D2*
X6969300D1*
X8975267D2*
X9453753D1*
X11005723D2*
X11049170D1*
X2190737Y2450910D2*
X2790993D1*
X3987950D2*
X4872033D1*
X6168707D2*
X7046227D1*
X8971167D2*
X9511540D1*
X10733380D2*
X10774457D1*
X11005723D2*
X12177280D1*
X2176063Y2387743D2*
X2800563D1*
X3978290D2*
X4885433D1*
X6111193D2*
X7711683D1*
X8957767D2*
X9611617D1*
X10710320D2*
X10774457D1*
X11005723D2*
X12277450D1*
X13376337D2*
X13421423D1*
X2153730Y2324577D2*
X2818700D1*
X3960150D2*
X4904757D1*
X6017860D2*
X7825250D1*
X8938537D2*
X9639690D1*
X10682247D2*
X10774457D1*
X11005723D2*
X12305613D1*
X13348170D2*
X13421423D1*
X2123017Y2261410D2*
X2844677D1*
X3934267D2*
X4932830D1*
X5989787D2*
X7853323D1*
X8910373D2*
X9683257D1*
X10638680D2*
X10774457D1*
X11005723D2*
X12349090D1*
X13304603D2*
X13421423D1*
X2082363Y2198243D2*
X2880317D1*
X3898627D2*
X4971840D1*
X5950777D2*
X7892333D1*
X8871453D2*
X9736123D1*
X10585723D2*
X10774457D1*
X11005723D2*
X12401957D1*
X13251830D2*
X13421423D1*
X1088147Y2135077D2*
X1162127D1*
X2028680D2*
X2242113D1*
X2742717D2*
X2927620D1*
X3851230D2*
X5018870D1*
X5903743D2*
X7939273D1*
X8824420D2*
X9806580D1*
X10515177D2*
X10774457D1*
X11005723D2*
X11260080D1*
X11760683D2*
X12472413D1*
X13181283D2*
X13421423D1*
X1088147Y2071910D2*
X1234497D1*
X1956310D2*
X2138387D1*
X2846440D2*
X2986317D1*
X3792623D2*
X5087320D1*
X5835477D2*
X8007633D1*
X8755970D2*
X9910210D1*
X10411637D2*
X10774457D1*
X11005723D2*
X11156357D1*
X11864410D2*
X12575863D1*
X13077743D2*
X13421423D1*
X1088147Y2008743D2*
X1338857D1*
X1851947D2*
X2067750D1*
X2916897D2*
X3071813D1*
X3707130D2*
X5180197D1*
X5742600D2*
X8100420D1*
X8663183D2*
X10774457D1*
X11005723D2*
X11085810D1*
X11935047D2*
X13421423D1*
X1088147Y1945577D2*
X2014793D1*
X2969850D2*
X3206710D1*
X3572143D2*
X5353830D1*
X5568967D2*
X8273687D1*
X8489917D2*
X10774457D1*
X11988003D2*
X13421423D1*
X1088147Y1882410D2*
X1971227D1*
X3013510D2*
X4598507D1*
X4958017D2*
X9035483D1*
X9395177D2*
X10774457D1*
X12031570D2*
X13421423D1*
X1088147Y1819243D2*
X1943063D1*
X3041673D2*
X4260627D1*
X5295893D2*
X8695877D1*
X9734787D2*
X10774457D1*
X12059733D2*
X13421423D1*
X1088147Y1756077D2*
X1920003D1*
X3141570D2*
X4076787D1*
X5479733D2*
X8511123D1*
X9919540D2*
X10774457D1*
X12082793D2*
X13421423D1*
X1088147Y1692910D2*
X1906513D1*
X3199447D2*
X3935510D1*
X5621010D2*
X8369210D1*
X10061453D2*
X10774457D1*
X12096193D2*
X13421423D1*
X1088147Y1629743D2*
X1898947D1*
X3220867D2*
X3820667D1*
X5735853D2*
X8253817D1*
X10176843D2*
X10778557D1*
X12103850D2*
X13421423D1*
X1088147Y1566577D2*
X1898947D1*
X3219043D2*
X3721410D1*
X5835113D2*
X8154013D1*
X10276647D2*
X10781200D1*
X12103850D2*
X13421423D1*
X1088147Y1503410D2*
X1905330D1*
X3193340D2*
X3634730D1*
X5921790D2*
X8066787D1*
X10363783D2*
X10800250D1*
X12097377D2*
X13421423D1*
X1088147Y1440243D2*
X1918817D1*
X3124343D2*
X3557983D1*
X5998447D2*
X7989677D1*
X10440983D2*
X10853387D1*
X12083980D2*
X13421423D1*
X1088147Y1377077D2*
X1940510D1*
X3044137D2*
X3488530D1*
X6067990D2*
X7919770D1*
X10510803D2*
X10958663D1*
X12062197D2*
X13421423D1*
X1109747Y1313910D2*
X1968673D1*
X3015970D2*
X3424913D1*
X6131610D2*
X7855693D1*
X10574970D2*
X10986733D1*
X12034123D2*
X13399820D1*
X1172910Y1250743D2*
X2010693D1*
X2973953D2*
X3366943D1*
X6189577D2*
X7797360D1*
X10633303D2*
X11028843D1*
X11992013D2*
X13336657D1*
X1236077Y1187577D2*
X2061553D1*
X2923183D2*
X3315263D1*
X6241257D2*
X7745317D1*
X10685347D2*
X11079613D1*
X11941243D2*
X13273493D1*
X1299240Y1124410D2*
X2130913D1*
X2853913D2*
X3266863D1*
X6289657D2*
X7696460D1*
X10734200D2*
X11148883D1*
X11871883D2*
X13210330D1*
X3198153Y3065620D2*
X3202300Y3090980D1*
X3211233Y3118483D1*
X3224363Y3144250D1*
X3241360Y3167647D1*
X3261810Y3188097D1*
X3267537Y3192610D1*
X3133437Y3193007D1*
X3107633Y3195637D1*
X3087767Y3199743D1*
X3060377Y3208843D1*
X3049710Y3213727D1*
X3005407Y3114503D1*
X2998050Y3102497D1*
X2933740Y3014193D1*
X2924047Y3003977D1*
X2908263Y2989767D1*
X2887740Y2968830D1*
X2841533Y2929720D1*
X2791610Y2895480D1*
X2738480Y2866460D1*
X2682693Y2842960D1*
X2624813Y2825220D1*
X2567520Y2813657D1*
X2553053Y2812980D1*
X2538660Y2814570D1*
X2524717Y2818387D1*
X2497077Y2815597D1*
X2483000Y2815963D1*
X2460063Y2818373D1*
X2446230Y2814570D1*
X2431837Y2812980D1*
X2417370Y2813657D1*
X2358027Y2825667D1*
X2300203Y2843613D1*
X2244490Y2867310D1*
X2191457Y2896520D1*
X2141650Y2930937D1*
X2095573Y2970213D1*
X2077393Y2988953D1*
X2057303Y3007213D1*
X2048157Y3017920D1*
X1984050Y3106367D1*
X1977330Y3118743D1*
X1933010Y3218587D1*
X1929010Y3232090D1*
X1906083Y3341293D1*
X1905317Y3376340D1*
X1905440Y3462243D1*
X1907277Y3476207D1*
X1930110Y3583030D1*
X1934810Y3596307D1*
X1979353Y3696050D1*
X1986710Y3708057D1*
X2051020Y3796360D1*
X2060713Y3806577D1*
X2077307Y3821517D1*
X2097147Y3841723D1*
X2143353Y3880833D1*
X2193277Y3915073D1*
X2246407Y3944093D1*
X2302197Y3967593D1*
X2360077Y3985333D1*
X2417370Y3996897D1*
X2431837Y3997573D1*
X2446230Y3995983D1*
X2460117Y3992183D1*
X2487683Y3994957D1*
X2501760Y3994590D1*
X2524697Y3992180D1*
X2538660Y3995983D1*
X2553053Y3997573D1*
X2567520Y3996897D1*
X2626860Y3984887D1*
X2684683Y3966940D1*
X2740397Y3943243D1*
X2793430Y3914033D1*
X2843240Y3879617D1*
X2889313Y3840340D1*
X2908247Y3820807D1*
X2932240Y3798167D1*
X2998023Y3708093D1*
X3004313Y3698130D1*
X3049790Y3596667D1*
X3075150Y3592437D1*
X3102653Y3583503D1*
X3128420Y3570373D1*
X3151817Y3553377D1*
X3172267Y3532927D1*
X3189263Y3509530D1*
X3202393Y3483763D1*
X3211327Y3456260D1*
X3215853Y3427700D1*
X3216337Y3411150D1*
X4009470Y3411167D1*
X4008087Y3428873D1*
X4009557Y3447533D1*
X4013927Y3465737D1*
X4021090Y3483030D1*
X4030870Y3498990D1*
X4043027Y3513223D1*
X4057260Y3525380D1*
X4073220Y3535160D1*
X4090513Y3542323D1*
X4108717Y3546693D1*
X4127377Y3548163D1*
X4146037Y3546693D1*
X4164240Y3542323D1*
X4181533Y3535160D1*
X4197493Y3525380D1*
X4211727Y3513223D1*
X4223883Y3498990D1*
X4229463Y3490533D1*
X5526040Y3490707D1*
X5526270Y3494137D1*
X5165810Y3494127D1*
Y3507890D1*
X5139120Y3499220D1*
X5110560Y3494693D1*
X5081640D1*
X5053080Y3499220D1*
X5025577Y3508153D1*
X4999810Y3521283D1*
X4976413Y3538280D1*
X4969150Y3544997D1*
X4950423Y3529323D1*
X4925767Y3514213D1*
X4899050Y3503147D1*
X4870930Y3496397D1*
X4842100Y3494127D1*
X4813270Y3496397D1*
X4785150Y3503147D1*
X4758433Y3514213D1*
X4733777Y3529323D1*
X4715150Y3544997D1*
X4696423Y3529323D1*
X4671767Y3514213D1*
X4645050Y3503147D1*
X4616930Y3496397D1*
X4588100Y3494127D1*
X4559270Y3496397D1*
X4531150Y3503147D1*
X4504433Y3514213D1*
X4479777Y3529323D1*
X4457787Y3548103D1*
X4439007Y3570093D1*
X4423897Y3594750D1*
X4412830Y3621467D1*
X4406080Y3649587D1*
X4403813Y3678473D1*
X4404377Y3892877D1*
X4408903Y3921437D1*
X4417837Y3948940D1*
X4430967Y3974707D1*
X4447963Y3998103D1*
X4468413Y4018553D1*
X4483583Y4030053D1*
X4180343Y4030077D1*
X4173857Y3996203D1*
X4160047Y3971497D1*
X4115253Y3895077D1*
X4093823Y3876587D1*
X4025593Y3820093D1*
X3999133Y3810047D1*
X3915697Y3780300D1*
X3887397Y3779910D1*
X3798820Y3780493D1*
X3772090Y3789803D1*
X3689053Y3820647D1*
X3667123Y3838540D1*
X3599643Y3895923D1*
X3585153Y3920233D1*
X3541367Y3997240D1*
X3535167Y4030160D1*
X1589883Y4030077D1*
X1589707Y3601283D1*
X1584807Y3576027D1*
X1581950Y3569130D1*
X1566720Y3546860D1*
X1561047Y3542013D1*
X1540480Y3528747D1*
X1533383Y3526440D1*
X1508053Y3522023D1*
X1081763D1*
X1081750Y2832353D1*
X1090550Y2847113D1*
X1125567Y2896493D1*
X1165393Y2942087D1*
X1186603Y2963300D1*
X1202510Y2979820D1*
X1292583Y3045603D1*
X1302547Y3051893D1*
X1404010Y3097370D1*
X1408240Y3122730D1*
X1417173Y3150233D1*
X1430303Y3176000D1*
X1447300Y3199397D1*
X1467750Y3219847D1*
X1491147Y3236843D1*
X1516913Y3249973D1*
X1544417Y3258907D1*
X1572977Y3263433D1*
X1601897D1*
X1630457Y3258907D1*
X1657960Y3249973D1*
X1683727Y3236843D1*
X1707123Y3219847D1*
X1727573Y3199397D1*
X1744570Y3176000D1*
X1757700Y3150233D1*
X1766633Y3122730D1*
X1770117Y3102983D1*
X1786430Y3097530D1*
X1886173Y3052987D1*
X1898180Y3045630D1*
X1986483Y2981320D1*
X1996700Y2971627D1*
X2010910Y2955843D1*
X2031847Y2935320D1*
X2070957Y2889113D1*
X2105197Y2839190D1*
X2134217Y2786060D1*
X2157717Y2730273D1*
X2175457Y2672393D1*
X2187020Y2615100D1*
X2187697Y2600633D1*
X2186107Y2586240D1*
X2182290Y2572297D1*
X2185080Y2544657D1*
X2184713Y2530580D1*
X2182303Y2507643D1*
X2186107Y2493810D1*
X2187697Y2479417D1*
X2187020Y2464950D1*
X2175010Y2405607D1*
X2157717Y2349777D1*
X2134237Y2294037D1*
X2118750Y2265217D1*
X2100250Y2232937D1*
X2065233Y2183553D1*
X2025407Y2137963D1*
X2004197Y2116620D1*
X1988290Y2100100D1*
X1898217Y2034317D1*
X1888253Y2028027D1*
X1786470Y1982407D1*
X1775417Y1978327D1*
X1666373Y1954867D1*
X1654710Y1953173D1*
X1543173Y1952897D1*
X1531417Y1953663D1*
X1422257Y1976583D1*
X1410917Y1979777D1*
X1308907Y2024893D1*
X1298480Y2030377D1*
X1208080Y2095713D1*
X1199020Y2103243D1*
X1179160Y2124887D1*
X1158953Y2144727D1*
X1121047Y2189253D1*
X1085603Y2240857D1*
X1081750Y2247107D1*
Y1335553D1*
X1335470Y1081797D1*
X2200010Y1081750D1*
X2185323Y1090500D1*
X2135940Y1125517D1*
X2090350Y1165343D1*
X2069007Y1186553D1*
X2052487Y1202460D1*
X1986703Y1292533D1*
X1980413Y1302497D1*
X1934793Y1404280D1*
X1930713Y1415333D1*
X1907253Y1524377D1*
X1905560Y1536040D1*
X1905283Y1647577D1*
X1906050Y1659333D1*
X1928970Y1768493D1*
X1932163Y1779833D1*
X1977280Y1881840D1*
X1982763Y1892270D1*
X2048100Y1982670D1*
X2055633Y1991730D1*
X2077273Y2011590D1*
X2097113Y2031797D1*
X2143320Y2070907D1*
X2193243Y2105147D1*
X2246373Y2134167D1*
X2302163Y2157667D1*
X2360043Y2175407D1*
X2417337Y2186970D1*
X2431803Y2187647D1*
X2446197Y2186057D1*
X2460083Y2182257D1*
X2489997Y2185123D1*
X2531567Y2184417D1*
X2545790Y2187133D1*
X2560267Y2187593D1*
X2574633Y2185780D1*
X2633817Y2173053D1*
X2691413Y2154413D1*
X2746830Y2130043D1*
X2799500Y2100200D1*
X2848880Y2065183D1*
X2894473Y2025357D1*
X2915687Y2004147D1*
X2932207Y1988240D1*
X2997990Y1898167D1*
X3004280Y1888203D1*
X3049757Y1786740D1*
X3075117Y1782510D1*
X3102620Y1773577D1*
X3128387Y1760447D1*
X3151783Y1743450D1*
X3172233Y1723000D1*
X3189230Y1699603D1*
X3202360Y1673837D1*
X3211293Y1646333D1*
X3215820Y1617773D1*
Y1588853D1*
X3211293Y1560293D1*
X3202360Y1532790D1*
X3189230Y1507023D1*
X3172233Y1483627D1*
X3151783Y1463177D1*
X3128387Y1446180D1*
X3102620Y1433050D1*
X3075117Y1424117D1*
X3055370Y1420633D1*
X3049917Y1404320D1*
X3005373Y1304577D1*
X2998017Y1292570D1*
X2933707Y1204267D1*
X2924013Y1194050D1*
X2908230Y1179840D1*
X2887707Y1158903D1*
X2841500Y1119793D1*
X2791577Y1085553D1*
X2784807Y1081787D1*
X3243447Y1081750D1*
X3288730Y1146563D1*
X3365977Y1242773D1*
X3449423Y1333657D1*
X3538710Y1418810D1*
X3633440Y1497863D1*
X3733200Y1570470D1*
X3837543Y1636307D1*
X3946027Y1695087D1*
X4058160Y1746557D1*
X4173460Y1790480D1*
X4291413Y1826677D1*
X4411507Y1854980D1*
X4533207Y1875260D1*
X4655990Y1887440D1*
X4779303Y1891457D1*
X4902620Y1887300D1*
X5025383Y1874983D1*
X5145010Y1854973D1*
X5267123Y1826123D1*
X5385037Y1789797D1*
X5500283Y1745740D1*
X5612363Y1694147D1*
X5720773Y1635240D1*
X5825047Y1569283D1*
X5924723Y1496567D1*
X6019363Y1417407D1*
X6108553Y1332150D1*
X6191897Y1241173D1*
X6269033Y1144877D1*
X6313133Y1081733D1*
X7672780Y1081750D1*
X7718737Y1146897D1*
X7796630Y1243113D1*
X7880700Y1333990D1*
X7970580Y1419120D1*
X8065873Y1498140D1*
X8166173Y1570707D1*
X8271040Y1636497D1*
X8378150Y1694303D1*
X8492630Y1746657D1*
X8608383Y1790537D1*
X8726783Y1826693D1*
X8847310Y1854963D1*
X8969437Y1875223D1*
X9092633Y1887390D1*
X9216363Y1891403D1*
X9340090Y1887250D1*
X9463273Y1874950D1*
X9585377Y1854550D1*
X9705870Y1826147D1*
X9824230Y1789860D1*
X9939937Y1745843D1*
X10052493Y1694297D1*
X10161403Y1635440D1*
X10266193Y1569530D1*
X10366410Y1496853D1*
X10461620Y1417727D1*
X10551403Y1332493D1*
X10635370Y1241527D1*
X10711897Y1146887D1*
X10757947Y1081677D1*
X11218033Y1081747D1*
X11203273Y1090517D1*
X11153893Y1125533D1*
X11108300Y1165360D1*
X11087087Y1186570D1*
X11073710Y1198987D1*
X11052490Y1226890D1*
X11002097Y1296460D1*
X10995377Y1308837D1*
X10953017Y1403977D1*
X10927657Y1408207D1*
X10900153Y1417140D1*
X10874387Y1430270D1*
X10850990Y1447267D1*
X10830540Y1467717D1*
X10813543Y1491113D1*
X10800413Y1516880D1*
X10791480Y1544383D1*
X10786953Y1572943D1*
Y1601863D1*
X10788477Y1614717D1*
X10783623Y1636127D1*
X10781347Y1656610D1*
X10780837Y1737957D1*
X10780503Y2890600D1*
X10778420Y2919423D1*
X10772593Y2947723D1*
X10763120Y2975023D1*
X10750167Y3000853D1*
X10733953Y3024773D1*
X10714753Y3046370D1*
X10692903Y3065277D1*
X10668770Y3081170D1*
X10642767Y3093777D1*
X10615343Y3102883D1*
X10586963Y3108330D1*
X10555990Y3110363D1*
X10476570Y3110360D1*
X10517367Y3081280D1*
X10562957Y3041453D1*
X10584300Y3020243D1*
X10600820Y3004337D1*
X10666630Y2914227D1*
X10674000Y2902193D1*
X10720327Y2798137D1*
X10724327Y2784633D1*
X10746920Y2677757D1*
X10748023Y2663717D1*
X10747900Y2554480D1*
X10746063Y2540517D1*
X10723230Y2433693D1*
X10718530Y2420417D1*
X10673987Y2320673D1*
X10666630Y2308667D1*
X10602320Y2220363D1*
X10592627Y2210147D1*
X10576033Y2195207D1*
X10556193Y2175000D1*
X10509987Y2135890D1*
X10460063Y2101650D1*
X10406933Y2072630D1*
X10351143Y2049130D1*
X10293263Y2031390D1*
X10235970Y2019827D1*
X10221503Y2019150D1*
X10207110Y2020740D1*
X10193223Y2024540D1*
X10163310Y2021673D1*
X10121740Y2022380D1*
X10107517Y2019663D1*
X10093040Y2019203D1*
X10078673Y2021017D1*
X10019490Y2033743D1*
X9961893Y2052383D1*
X9906477Y2076753D1*
X9853807Y2106597D1*
X9806007Y2140283D1*
X9758833Y2181440D1*
X9737620Y2202650D1*
X9721100Y2218557D1*
X9655317Y2308630D1*
X9649027Y2318593D1*
X9603550Y2420057D1*
X9578190Y2424287D1*
X9550687Y2433220D1*
X9524920Y2446350D1*
X9501523Y2463347D1*
X9481073Y2483797D1*
X9464077Y2507193D1*
X9450947Y2532960D1*
X9442013Y2560463D1*
X9437487Y2589023D1*
Y2617943D1*
X9442013Y2646503D1*
X9450947Y2674007D1*
X9464077Y2699773D1*
X9481073Y2723170D1*
X9501523Y2743620D1*
X9524920Y2760617D1*
X9550687Y2773747D1*
X9578190Y2782680D1*
X9597937Y2786163D1*
X9603390Y2802477D1*
X9647933Y2902220D1*
X9655290Y2914227D1*
X9719600Y3002530D1*
X9729293Y3012747D1*
X9745077Y3026957D1*
X9765600Y3047893D1*
X9811807Y3087003D1*
X9845223Y3110310D1*
X8520943Y3110360D1*
X8580813Y3091027D1*
X8636227Y3066657D1*
X8688897Y3036813D1*
X8736697Y3003127D1*
X8783870Y2961970D1*
X8805213Y2940760D1*
X8821733Y2924853D1*
X8887517Y2834780D1*
X8893807Y2824817D1*
X8939427Y2723033D1*
X8943507Y2711980D1*
X8966967Y2602937D1*
X8968660Y2591273D1*
X8968937Y2479737D1*
X8968170Y2467980D1*
X8945250Y2358820D1*
X8942057Y2347480D1*
X8896940Y2245470D1*
X8891457Y2235043D1*
X8826120Y2144643D1*
X8818590Y2135583D1*
X8796947Y2115723D1*
X8777107Y2095517D1*
X8730900Y2056407D1*
X8680977Y2022167D1*
X8627847Y1993147D1*
X8574020Y1970290D1*
X8514177Y1951907D1*
X8456883Y1940343D1*
X8442417Y1939667D1*
X8428023Y1941257D1*
X8414137Y1945057D1*
X8384223Y1942190D1*
X8342653Y1942897D1*
X8328430Y1940180D1*
X8313953Y1939720D1*
X8299587Y1941533D1*
X8240403Y1954260D1*
X8182807Y1972900D1*
X8127390Y1997270D1*
X8074720Y2027113D1*
X8025340Y2062130D1*
X7979747Y2101957D1*
X7958533Y2123167D1*
X7942013Y2139073D1*
X7876230Y2229147D1*
X7869940Y2239110D1*
X7824463Y2340573D1*
X7799103Y2344803D1*
X7771600Y2353737D1*
X7745833Y2366867D1*
X7722437Y2383863D1*
X7701987Y2404313D1*
X7693763Y2414743D1*
X7179380Y2415390D1*
X7152507Y2417493D1*
X7116033Y2424943D1*
X7080843Y2437090D1*
X7047540Y2453727D1*
X7016693Y2474567D1*
X6988833Y2499257D1*
X6964433Y2527370D1*
X6945353Y2555923D1*
X6931117Y2584030D1*
X6922700Y2605923D1*
X6915833Y2627213D1*
X6911787Y2624137D1*
X6906003Y2606333D1*
X6897503Y2589653D1*
X6886503Y2574510D1*
X6873267Y2561273D1*
X6858123Y2550273D1*
X6841443Y2541773D1*
X6823640Y2535990D1*
X6805153Y2533060D1*
X6786433D1*
X6767947Y2535990D1*
X6750143Y2541773D1*
X6733463Y2550273D1*
X6718320Y2561273D1*
X6705083Y2574510D1*
X6694083Y2589653D1*
X6685583Y2606333D1*
X6679800Y2624137D1*
X6676870Y2642623D1*
Y2661343D1*
X6679800Y2679830D1*
X6685583Y2697633D1*
X6686517Y2699660D1*
X6686503Y2750330D1*
X6206503Y2750360D1*
Y2811520D1*
X6191230Y2811583D1*
X6180363Y2807423D1*
X6162160Y2803053D1*
X6143500Y2801583D1*
X6124840Y2803053D1*
X6106637Y2807423D1*
X6089343Y2814587D1*
X6073383Y2824367D1*
X6059150Y2836523D1*
X6046993Y2850757D1*
X6037213Y2866717D1*
X6030050Y2884010D1*
X6025680Y2902213D1*
X6024210Y2920873D1*
X6025680Y2939533D1*
X6026227Y2942297D1*
X6004727Y2940360D1*
X5986067Y2941830D1*
X5967863Y2946200D1*
X5950570Y2953363D1*
X5934610Y2963143D1*
X5920377Y2975300D1*
X5908220Y2989533D1*
X5898440Y3005493D1*
X5891277Y3022787D1*
X5886907Y3040990D1*
X5885467Y3058883D1*
X5868403Y3050640D1*
X5842030Y3041490D1*
X5814690Y3035860D1*
X5785417Y3033837D1*
X5772930D1*
X5817843Y3001910D1*
X5863433Y2962083D1*
X5884647Y2940873D1*
X5901167Y2924967D1*
X5966950Y2834893D1*
X5973240Y2824930D1*
X6018720Y2723467D1*
X6044080Y2719237D1*
X6071583Y2710303D1*
X6097350Y2697173D1*
X6120747Y2680177D1*
X6141193Y2659727D1*
X6158190Y2636330D1*
X6171320Y2610563D1*
X6180257Y2583060D1*
X6184780Y2554500D1*
Y2525580D1*
X6180257Y2497020D1*
X6171320Y2469517D1*
X6158190Y2443750D1*
X6141193Y2420353D1*
X6120747Y2399903D1*
X6097350Y2382907D1*
X6071583Y2369777D1*
X6044080Y2360843D1*
X6024330Y2357360D1*
X6018880Y2341047D1*
X5974337Y2241303D1*
X5966977Y2229297D1*
X5902670Y2140993D1*
X5892977Y2130777D1*
X5877193Y2116567D1*
X5856670Y2095630D1*
X5812143Y2057723D1*
X5760540Y2022280D1*
X5707410Y1993260D1*
X5651620Y1969760D1*
X5593740Y1952020D1*
X5536447Y1940457D1*
X5521980Y1939780D1*
X5507587Y1941370D1*
X5493647Y1945187D1*
X5466007Y1942397D1*
X5451927Y1942763D1*
X5428993Y1945173D1*
X5415157Y1941370D1*
X5400763Y1939780D1*
X5386297Y1940457D1*
X5326957Y1952467D1*
X5269133Y1970413D1*
X5213420Y1994110D1*
X5160387Y2023320D1*
X5110577Y2057737D1*
X5064503Y2097013D1*
X5046320Y2115753D1*
X5026233Y2134013D1*
X5017087Y2144720D1*
X4952977Y2233170D1*
X4946257Y2245547D1*
X4901940Y2345387D1*
X4897940Y2358890D1*
X4875350Y2465767D1*
X4874243Y2479807D1*
X4874367Y2589043D1*
X4876203Y2603007D1*
X4899037Y2709830D1*
X4903737Y2723107D1*
X4948280Y2822850D1*
X4955640Y2834857D1*
X5019947Y2923160D1*
X5029640Y2933377D1*
X5046237Y2948317D1*
X5066077Y2968523D1*
X5112283Y3007633D1*
X5149887Y3033860D1*
X4341757Y3033830D1*
X4335007Y3023290D1*
X4322850Y3009057D1*
X4308617Y2996900D1*
X4292657Y2987120D1*
X4275363Y2979957D1*
X4257160Y2975587D1*
X4238500Y2974117D1*
X4219840Y2975587D1*
X4201637Y2979957D1*
X4184343Y2987120D1*
X4168383Y2996900D1*
X4154150Y3009057D1*
X4141993Y3023290D1*
X4132213Y3039250D1*
X4125050Y3056543D1*
X4120680Y3074747D1*
X4119210Y3093407D1*
X4120900Y3113180D1*
X3553980Y3112840D1*
X3560693Y3090980D1*
X3564177Y3071233D1*
X3580490Y3065780D1*
X3680233Y3021237D1*
X3692240Y3013880D1*
X3780543Y2949570D1*
X3790760Y2939877D1*
X3804970Y2924093D1*
X3825907Y2903570D1*
X3865017Y2857363D1*
X3899257Y2807440D1*
X3927437Y2756200D1*
X3951777Y2698523D1*
X3969517Y2640643D1*
X3981080Y2583350D1*
X3981757Y2568883D1*
X3980167Y2554490D1*
X3976350Y2540547D1*
X3979140Y2512907D1*
X3978773Y2498830D1*
X3976363Y2475893D1*
X3980167Y2462060D1*
X3981757Y2447667D1*
X3981080Y2433200D1*
X3969070Y2373857D1*
X3951123Y2316033D1*
X3927427Y2260320D1*
X3898217Y2207287D1*
X3863800Y2157480D1*
X3824523Y2111403D1*
X3805783Y2093223D1*
X3785840Y2071493D1*
X3757937Y2050273D1*
X3688367Y1999880D1*
X3675990Y1993160D1*
X3576150Y1948840D1*
X3562647Y1944843D1*
X3455770Y1922250D1*
X3441730Y1921147D1*
X3332493Y1921270D1*
X3318530Y1923107D1*
X3211707Y1945940D1*
X3198430Y1950640D1*
X3098687Y1995183D1*
X3086680Y2002540D1*
X2998377Y2066850D1*
X2988160Y2076543D1*
X2973220Y2093137D1*
X2953013Y2112977D1*
X2913903Y2159183D1*
X2879663Y2209107D1*
X2850643Y2262237D1*
X2827143Y2318027D1*
X2809403Y2375907D1*
X2797840Y2433200D1*
X2797163Y2447667D1*
X2798753Y2462060D1*
X2802553Y2475947D1*
X2799687Y2505860D1*
X2800393Y2547430D1*
X2797677Y2561653D1*
X2797217Y2576130D1*
X2799030Y2590497D1*
X2811757Y2649680D1*
X2830397Y2707277D1*
X2854767Y2762693D1*
X2883450Y2813653D1*
X2919627Y2864743D1*
X2959453Y2910337D1*
X2980663Y2931550D1*
X2996570Y2948070D1*
X3086643Y3013853D1*
X3096607Y3020143D1*
X3198070Y3065620D1*
X7693833Y2633343D2*
X7711810Y2654313D1*
X7733800Y2673093D1*
X7758457Y2688203D1*
X7785173Y2699270D1*
X7813293Y2706020D1*
X7818850Y2706680D1*
X7822517Y2718677D1*
X7868847Y2822737D1*
X7876203Y2834743D1*
X7940513Y2923047D1*
X7950207Y2933263D1*
X7965990Y2947473D1*
X7986513Y2968410D1*
X8032720Y3007520D1*
X8082643Y3041760D1*
X8135773Y3070780D1*
X8191560Y3094280D1*
X8242433Y3110283D1*
X7389823Y3110360D1*
X7394010Y3089337D1*
X7395790Y3063750D1*
Y2825767D1*
X7402493Y2805847D1*
X7405423Y2787360D1*
Y2768640D1*
X7402493Y2750153D1*
X7396710Y2732350D1*
X7388210Y2715670D1*
X7377210Y2700527D1*
X7363973Y2687290D1*
X7348830Y2676290D1*
X7332150Y2667790D1*
X7314347Y2662007D1*
X7295860Y2659077D1*
X7277140D1*
X7258653Y2662007D1*
X7240850Y2667790D1*
X7224170Y2676290D1*
X7209027Y2687290D1*
X7195790Y2700527D1*
X7184790Y2715670D1*
X7176290Y2732350D1*
X7170507Y2750153D1*
X7167577Y2768640D1*
Y2787360D1*
X7170507Y2805847D1*
X7176290Y2823650D1*
X7177223Y2825677D1*
X7177210Y2950357D1*
X7125020Y2950360D1*
X7125450Y2697450D1*
X7127167Y2684400D1*
X7130330Y2674267D1*
X7137797Y2661080D1*
X7144597Y2652927D1*
X7156540Y2643600D1*
X7165940Y2638673D1*
X7180547Y2634627D1*
X7194693Y2633437D1*
X7693797Y2633323D1*
X12269463Y2420030D2*
X12244103Y2424177D1*
X12216600Y2433110D1*
X12190833Y2446240D1*
X12167437Y2463237D1*
X12146987Y2483687D1*
X12138763Y2494117D1*
X11159967Y2494083D1*
X11121490Y2496713D1*
X11085107Y2504147D1*
X11050003Y2516267D1*
X11016780Y2532863D1*
X10999403Y2544297D1*
X10999417Y1889890D1*
X11018473Y1917023D1*
X11069067Y1986450D1*
X11078760Y1996667D1*
X11094543Y2010877D1*
X11115067Y2031813D1*
X11161273Y2070923D1*
X11211197Y2105163D1*
X11264327Y2134183D1*
X11320113Y2157683D1*
X11377993Y2175423D1*
X11435287Y2186987D1*
X11449753Y2187663D1*
X11464150Y2186073D1*
X11478090Y2182257D1*
X11505730Y2185047D1*
X11519807Y2184680D1*
X11542743Y2182270D1*
X11556577Y2186073D1*
X11570970Y2187663D1*
X11585437Y2186987D1*
X11644780Y2174977D1*
X11702603Y2157030D1*
X11758317Y2133333D1*
X11811347Y2104123D1*
X11861157Y2069707D1*
X11907233Y2030430D1*
X11925413Y2011690D1*
X11945503Y1993430D1*
X11954650Y1982723D1*
X12018757Y1894277D1*
X12025477Y1881897D1*
X12069797Y1782057D1*
X12073797Y1768553D1*
X12096387Y1661677D1*
X12097490Y1647637D1*
X12097370Y1538400D1*
X12095530Y1524437D1*
X12072700Y1417613D1*
X12067997Y1404337D1*
X12022360Y1302513D1*
X12002380Y1273710D1*
X11951787Y1204283D1*
X11942093Y1194067D1*
X11925500Y1179127D1*
X11905660Y1158920D1*
X11859453Y1119810D1*
X11809530Y1085570D1*
X11802600Y1081713D1*
X13173983Y1081750D1*
X13427733Y1335470D1*
X13427750Y3521777D1*
X12997767Y3521970D1*
X12971383Y3527517D1*
X12964730Y3530903D1*
X12944587Y3544830D1*
X12939740Y3550507D1*
X12926473Y3571073D1*
X12924167Y3578170D1*
X12919750Y3603500D1*
Y4029790D1*
X11787293Y4029750D1*
X11801573Y4021253D1*
X11850957Y3986237D1*
X11896547Y3946410D1*
X11917890Y3925200D1*
X11934410Y3909293D1*
X12000193Y3819220D1*
X12006483Y3809257D1*
X12052103Y3707473D1*
X12056183Y3696420D1*
X12079643Y3587377D1*
X12081337Y3575713D1*
X12081613Y3464177D1*
X12080847Y3452420D1*
X12057927Y3343260D1*
X12054733Y3331920D1*
X12009617Y3229910D1*
X12004133Y3219483D1*
X11938797Y3129083D1*
X11931267Y3120023D1*
X11909623Y3100163D1*
X11889783Y3079957D1*
X11843577Y3040847D1*
X11795447Y3007633D1*
X11740523Y2977587D1*
X11684733Y2954087D1*
X11626853Y2936347D1*
X11569560Y2924783D1*
X11555093Y2924107D1*
X11540700Y2925697D1*
X11526813Y2929497D1*
X11499247Y2926723D1*
X11485170Y2927090D1*
X11462233Y2929500D1*
X11448270Y2925697D1*
X11433877Y2924107D1*
X11419410Y2924783D1*
X11360070Y2936793D1*
X11302247Y2954740D1*
X11246533Y2978437D1*
X11193500Y3007647D1*
X11143690Y3042063D1*
X11097617Y3081340D1*
X11078683Y3100873D1*
X11054690Y3123513D1*
X11044380Y3137233D1*
X11057197Y3110927D1*
X11077763Y3050930D1*
X11090320Y2988760D1*
X11094427Y2931267D1*
X11094730Y2780587D1*
X11095843Y2767567D1*
X11099223Y2754953D1*
X11104720Y2743807D1*
X11112667Y2733450D1*
X11122013Y2725253D1*
X11133320Y2718727D1*
X11145087Y2714730D1*
X11158033Y2713027D1*
X11230000Y2712663D1*
X12138817D1*
X12156810Y2733687D1*
X12178800Y2752467D1*
X12203457Y2767577D1*
X12230173Y2778643D1*
X12258293Y2785393D1*
X12263850Y2786053D1*
X12269303Y2802367D1*
X12313847Y2902110D1*
X12321203Y2914117D1*
X12385513Y3002420D1*
X12395207Y3012637D1*
X12410987Y3026847D1*
X12431513Y3047783D1*
X12477720Y3086893D1*
X12527643Y3121133D1*
X12580773Y3150153D1*
X12636560Y3173653D1*
X12694440Y3191393D1*
X12751733Y3202957D1*
X12766200Y3203633D1*
X12780593Y3202043D1*
X12794537Y3198227D1*
X12822177Y3201017D1*
X12836253Y3200650D1*
X12859190Y3198240D1*
X12873023Y3202043D1*
X12887417Y3203633D1*
X12901883Y3202957D1*
X12961227Y3190947D1*
X13019050Y3173000D1*
X13074763Y3149303D1*
X13127797Y3120093D1*
X13177603Y3085677D1*
X13223680Y3046400D1*
X13241860Y3027660D1*
X13261950Y3009400D1*
X13271097Y2998693D1*
X13335203Y2910247D1*
X13341923Y2897867D1*
X13386243Y2798027D1*
X13390243Y2784523D1*
X13412833Y2677647D1*
X13413937Y2663607D1*
X13413817Y2554370D1*
X13411977Y2540407D1*
X13389143Y2433583D1*
X13384443Y2420307D1*
X13339900Y2320563D1*
X13332543Y2308557D1*
X13268233Y2220253D1*
X13258540Y2210037D1*
X13241947Y2195097D1*
X13222107Y2174890D1*
X13175900Y2135780D1*
X13125977Y2101540D1*
X13072847Y2072520D1*
X13017057Y2049020D1*
X12959177Y2031280D1*
X12901883Y2019717D1*
X12887417Y2019040D1*
X12873023Y2020630D1*
X12859137Y2024430D1*
X12829223Y2021563D1*
X12787653Y2022270D1*
X12773430Y2019553D1*
X12758953Y2019093D1*
X12744587Y2020907D1*
X12685403Y2033633D1*
X12627807Y2052273D1*
X12572390Y2076643D1*
X12519720Y2106487D1*
X12470340Y2141503D1*
X12424747Y2181330D1*
X12403533Y2202540D1*
X12387013Y2218447D1*
X12321230Y2308520D1*
X12314940Y2318483D1*
X12269463Y2419947D1*
X10771670Y3488983D2*
X10770510Y3508440D1*
X10772780Y3537270D1*
X10779530Y3565390D1*
X10790597Y3592107D1*
X10805707Y3616763D1*
X10824487Y3638753D1*
X10846477Y3657533D1*
X10871133Y3672643D1*
X10897850Y3683710D1*
X10925970Y3690460D1*
X10931527Y3691120D1*
X10936980Y3707433D1*
X10981523Y3807177D1*
X10988880Y3819183D1*
X11053190Y3907487D1*
X11062883Y3917703D1*
X11078667Y3931913D1*
X11099190Y3952850D1*
X11145397Y3991960D1*
X11195320Y4026200D1*
X11201500Y4029750D1*
X10291957D1*
X10285407Y3995887D1*
X10271597Y3971180D1*
X10226807Y3894767D1*
X10205377Y3876277D1*
X10137153Y3819790D1*
X10110693Y3809743D1*
X10027267Y3780000D1*
X9998967Y3779610D1*
X9910397Y3780193D1*
X9883667Y3789503D1*
X9800640Y3820343D1*
X9778710Y3838237D1*
X9711237Y3895613D1*
X9696747Y3919927D1*
X9652967Y3996923D1*
X9646763Y4029840D1*
X7784417Y4030067D1*
X7777860Y3996203D1*
X7764050Y3971497D1*
X7726043Y3905667D1*
X8059383Y3905693D1*
X8077693Y3926977D1*
X8099683Y3945757D1*
X8124340Y3960867D1*
X8151057Y3971933D1*
X8179177Y3978683D1*
X8208007Y3980953D1*
X8236837Y3978683D1*
X8264957Y3971933D1*
X8291673Y3960867D1*
X8316330Y3945757D1*
X8338320Y3926977D1*
X8357100Y3904987D1*
X8372210Y3880330D1*
X8383277Y3853613D1*
X8390027Y3825493D1*
X8392297Y3796663D1*
X8391730Y3682203D1*
X8387203Y3653643D1*
X8378270Y3626140D1*
X8365140Y3600373D1*
X8348143Y3576977D1*
X8340737Y3568967D1*
X8557707Y3568940D1*
X8541513Y3588340D1*
X8526403Y3612997D1*
X8515337Y3639713D1*
X8508587Y3667833D1*
X8506317Y3696663D1*
Y3796663D1*
X8508587Y3825493D1*
X8515337Y3853613D1*
X8526403Y3880330D1*
X8541513Y3904987D1*
X8560293Y3926977D1*
X8582283Y3945757D1*
X8606940Y3960867D1*
X8633657Y3971933D1*
X8661777Y3978683D1*
X8690607Y3980953D1*
X8719437Y3978683D1*
X8747557Y3971933D1*
X8774273Y3960867D1*
X8798930Y3945757D1*
X8820920Y3926977D1*
X8838967Y3905920D1*
X9261747Y3905953D1*
Y3587373D1*
X8839050D1*
X8823337Y3568967D1*
X9503390Y3568963D1*
X9501920Y3587623D1*
X9503390Y3606283D1*
X9507760Y3624487D1*
X9514923Y3641780D1*
X9524703Y3657740D1*
X9536860Y3671973D1*
X9551093Y3684130D1*
X9567053Y3693910D1*
X9584347Y3701073D1*
X9602550Y3705443D1*
X9621210Y3706913D1*
X9639870Y3705443D1*
X9658073Y3701073D1*
X9675367Y3693910D1*
X9691327Y3684130D1*
X9705560Y3671973D1*
X9717717Y3657740D1*
X9727497Y3641780D1*
X9734660Y3624487D1*
X9739030Y3606283D1*
X9740500Y3587623D1*
X9739030Y3568963D1*
X9734660Y3550760D1*
X9729383Y3537553D1*
X9727590Y3513793D1*
X9722460Y3488940D1*
X10771457D1*
X7820297Y3587113D2*
X7669940D1*
X7669923Y3568860D1*
X8075180Y3568940D1*
X8059857Y3587143D1*
X7820307Y3587203D1*
X5534390Y4029987D2*
X5534757Y3553000D1*
X5545000Y3582573D1*
X5559013Y3610560D1*
X5576563Y3636477D1*
X5597343Y3659880D1*
X5621003Y3680373D1*
X5647133Y3697603D1*
X5675287Y3711273D1*
X5704987Y3721153D1*
X5735720Y3727073D1*
X5758387Y3728707D1*
X6223523Y3728940D1*
X6223503Y3911940D1*
X6446503Y3912360D1*
Y3928940D1*
X6665083D1*
Y3911933D1*
X6686487Y3911940D1*
X6686503Y3928940D1*
X6783547D1*
X6792433Y3948910D1*
X6804707Y3971687D1*
X6818743Y3992423D1*
X6840767Y4017820D1*
X6854220Y4030063D1*
X5534407Y4030073D1*
X6446453Y3141437D2*
X6432533Y3141877D1*
X6407660Y3145817D1*
X6383710Y3153600D1*
X6361270Y3165033D1*
X6345110Y3176513D1*
X6345083Y3089003D1*
X6446510Y3088940D1*
X6446503Y3141370D1*
X6345110Y3427233D2*
X6361270Y3438713D1*
X6383710Y3450147D1*
X6407660Y3457930D1*
X6432533Y3461870D1*
X6457720D1*
X6482593Y3457930D1*
X6506543Y3450147D1*
X6528983Y3438713D1*
X6549357Y3423910D1*
X6567163Y3406103D1*
X6581967Y3385730D1*
X6593400Y3363290D1*
X6601183Y3339340D1*
X6603227Y3329057D1*
X6623290Y3331440D1*
X6659550Y3332023D1*
X6685710D1*
X6685693Y3476650D1*
X6678990Y3496543D1*
X6676060Y3515030D1*
Y3533750D1*
X6678990Y3552237D1*
X6684773Y3570040D1*
X6685860Y3572400D1*
X6685980Y3607437D1*
X6665083Y3606940D1*
Y3590360D1*
X6446503D1*
Y3607367D1*
X6345103Y3607360D1*
X6345083Y3427417D1*
X11034403Y1251753D2*
X11034370Y1251800D1*
X12350850Y2267723D2*
X12350817Y2267770D1*
X6685707Y3476713D2*
X6681533Y3487527D1*
X6677163Y3505730D1*
X6675693Y3524390D1*
X6677163Y3543050D1*
X6681533Y3561253D1*
X6685860Y3572400D1*
X7779597Y3905603D2*
D14*
Y3587203D1*
X9112457Y3905863D2*
Y3587463D1*
Y3746663D2*
X9261657D1*
X6475793Y3088850D2*
Y2750450D1*
X6635793Y2919650D2*
Y2750450D1*
X6555793Y3928850D2*
Y3590450D1*
D21*
X3381497Y1968460D3*
Y3047960D3*
X1587437Y2000210D3*
Y3079710D3*
X1952597Y1603313D3*
X3032097D3*
X1952630Y3413240D3*
X3032130D3*
X8921623Y2524000D3*
X7842123D3*
X4921557Y2540040D3*
X6001057D3*
X12050177Y1587403D3*
X10970677D3*
X13366623Y2603373D3*
X12287123D3*
X10700710Y2603483D3*
X9621210D3*
X12034300Y3508440D3*
X10954800D3*
D24*
X7779597Y3746403D3*
X7969597D3*
X9112457Y3746663D3*
X8922457D3*
D25*
X5350100Y3778417D3*
D26*
X5096100D3*
X4842100D3*
X4588100D3*
X4334100D3*
D27*
X7239530D3*
X7064887Y3984813D3*
X6445127Y3301873D3*
D28*
X7509433Y3699033D3*
D30*
X6315793Y2919650D3*
X6395793D3*
X6475793D3*
X6555793D3*
X6635793D3*
X6715793D3*
X6795793D3*
X6875793D3*
D31*
X7015793Y3059650D3*
Y3139650D3*
Y3219650D3*
Y3299650D3*
Y3379650D3*
Y3459650D3*
Y3539650D3*
Y3619650D3*
D30*
X6875793Y3759650D3*
X6795793D3*
X6715793D3*
X6635793D3*
X6555793D3*
X6475793D3*
X6395793D3*
X6315793D3*
D31*
X6175793Y3619650D3*
Y3539650D3*
Y3459650D3*
Y3379650D3*
Y3299650D3*
Y3219650D3*
Y3139650D3*
Y3059650D3*
D32*
X8690607Y3746663D3*
X8208007D3*
X3540229Y2968574D2*
D14*
Y2127303D1*
X3063932Y2873379D2*
X3064048Y2254229D1*
X3302197Y2031980D2*
Y2889245D1*
X3381580Y2111437D2*
Y2984568D1*
X3778378Y2206632D2*
Y2651130D1*
X3222814Y2968574D2*
Y2143169D1*
X2889406Y2571801D2*
G02X3889514Y2571801I500054J-77299D01*
G01*
X3698995Y2889245D2*
Y2222498D1*
X3460847Y2889245D2*
Y2031980D1*
X3619612Y2079577D2*
Y2841648D1*
X3889514Y2444747D2*
G02X2889406Y2444747I-500054J77299D01*
G01*
X3143431Y2079577D2*
Y2841648D1*
X2984666Y2222498D2*
Y2635264D1*
X1746169Y3000324D2*
Y2159053D1*
X1269872Y2905129D2*
X1269988Y2285979D1*
X1508137Y2063730D2*
Y2920995D1*
X1587520Y2143187D2*
Y3016318D1*
X1984318Y2238382D2*
Y2682880D1*
X1428754Y3000324D2*
Y2174919D1*
X1095346Y2603551D2*
G02X2095454Y2603551I500054J-77299D01*
G01*
X1904935Y2920995D2*
Y2254248D1*
X1666787Y2920995D2*
Y2063730D1*
X1825552Y2111327D2*
Y2873398D1*
X2095454Y2476497D2*
G02X1095346Y2476497I-500054J77299D01*
G01*
X1349371Y2111327D2*
Y2873398D1*
X1190606Y2254248D2*
Y2667014D1*
X2952711Y1444581D2*
X2111440D1*
X2857516Y1920878D2*
X2238366Y1920762D1*
X2016117Y1682613D2*
X2873382D1*
X2095574Y1603230D2*
X2968705D1*
X2190769Y1206432D2*
X2635267D1*
X2952711Y1761996D2*
X2127305D1*
X2555938Y2095404D2*
G02X2555938Y1095296I-77299J-500054D01*
G01*
X2873382Y1285815D2*
X2206634D1*
X2873382Y1523963D2*
X2016117D1*
X2063714Y1365198D2*
X2825784D1*
X2428883Y1095296D2*
G02X2428883Y2095404I77299J500054D01*
G01*
X2063714Y1841379D2*
X2825784D1*
X2206634Y2000144D2*
X2619401D1*
X2952744Y3254507D2*
X2111473D1*
X2857549Y3730804D2*
X2238399Y3730688D1*
X2016150Y3492540D2*
X2873415D1*
X2095607Y3413157D2*
X2968738D1*
X2190802Y3016359D2*
X2635300D1*
X2952744Y3571923D2*
X2127339D1*
X2555971Y3905331D2*
G02X2555971Y2905223I-77299J-500054D01*
G01*
X2873415Y3095742D2*
X2206668D1*
X2873415Y3333890D2*
X2016150D1*
X2063747Y3175124D2*
X2825818D1*
X2428917Y2905223D2*
G02X2428917Y3905331I77299J500054D01*
G01*
X2063747Y3651305D2*
X2825818D1*
X2206668Y3810071D2*
X2619434D1*
X7921509Y2682733D2*
X8762780D1*
X8016704Y2206436D2*
X8635854Y2206552D1*
X8858103Y2444700D2*
X8000838D1*
X8778646Y2524083D2*
X7905515D1*
X8683451Y2920881D2*
X8238953D1*
X7921509Y2365317D2*
X8746915D1*
X8318282Y2031909D2*
G02X8318282Y3032017I77299J500054D01*
G01*
X8000838Y2841498D2*
X8667586D1*
X8000838Y2603350D2*
X8858103D1*
X8810506Y2762116D2*
X8048436D1*
X8445337Y3032017D2*
G02X8445337Y2031909I-77299J-500054D01*
G01*
X8810506Y2285935D2*
X8048436D1*
X8667586Y2127169D2*
X8254819D1*
X5921671Y2381307D2*
X5080400D1*
X5826476Y2857604D2*
X5207326Y2857488D1*
X4985077Y2619340D2*
X5842342D1*
X5064534Y2539957D2*
X5937665D1*
X5159729Y2143159D2*
X5604227D1*
X5921671Y2698723D2*
X5096265D1*
X5524898Y3032131D2*
G02X5524898Y2032023I-77299J-500054D01*
G01*
X5842342Y2222542D2*
X5175594D1*
X5842342Y2460690D2*
X4985077D1*
X5032674Y2301924D2*
X5794744D1*
X5397843Y2032023D2*
G02X5397843Y3032131I77299J500054D01*
G01*
X5032674Y2778105D2*
X5794744D1*
X5175594Y2936871D2*
X5588361D1*
X11050063Y1746136D2*
X11891334D1*
X11145257Y1269839D2*
X11764407Y1269955D1*
X11986657Y1508104D2*
X11129392D1*
X11907200Y1587486D2*
X11034069D1*
X11812005Y1984285D2*
X11367507D1*
X11050063Y1428721D2*
X11875468D1*
X11446836Y1095313D2*
G02X11446836Y2095421I77299J500054D01*
G01*
X11129392Y1904902D2*
X11796139D1*
X11129392Y1666753D2*
X11986657D1*
X11939059Y1825519D2*
X11176989D1*
X11573890Y2095421D2*
G02X11573890Y1095313I-77299J-500054D01*
G01*
X11939059Y1349338D2*
X11176989D1*
X11796139Y1190572D2*
X11383372D1*
X12366509Y2762106D2*
X13207780D1*
X12461704Y2285809D2*
X13080854Y2285925D1*
X13303103Y2524074D2*
X12445838D1*
X13223646Y2603456D2*
X12350515D1*
X13128451Y3000255D2*
X12683953D1*
X12366509Y2444691D2*
X13191915D1*
X12763282Y2111283D2*
G02X12763282Y3111391I77299J500054D01*
G01*
X12445838Y2920872D2*
X13112586D1*
X12445838Y2682723D2*
X13303103D1*
X13255506Y2841489D2*
X12493436D1*
X12890337Y3111391D2*
G02X12890337Y2111283I-77299J-500054D01*
G01*
X13255506Y2365308D2*
X12493436D1*
X13112586Y2206542D2*
X12699819D1*
X9700596Y2762216D2*
X10541867D1*
X9795791Y2285919D2*
X10414941Y2286035D1*
X10637190Y2524184D2*
X9779925D1*
X10557733Y2603566D2*
X9684602D1*
X10462538Y3000365D2*
X10018040D1*
X9700596Y2444801D2*
X10526001D1*
X10097369Y2111393D2*
G02X10097369Y3111501I77299J500054D01*
G01*
X9779925Y2920982D2*
X10446672D1*
X9779925Y2682833D2*
X10637190D1*
X10589593Y2841599D2*
X9827522D1*
X10224423Y3111501D2*
G02X10224423Y2111393I-77299J-500054D01*
G01*
X10589593Y2365418D2*
X9827522D1*
X10446672Y2206652D2*
X10033906D1*
X11034186Y3667173D2*
X11875457D1*
X11129381Y3190876D2*
X11748531Y3190992D1*
X11970780Y3429140D2*
X11113515D1*
X11891323Y3508523D2*
X11018192D1*
X11796128Y3905321D2*
X11351630D1*
X11034186Y3349757D2*
X11859591D1*
X11430959Y3016349D2*
G02X11430959Y4016457I77299J500054D01*
G01*
X11113515Y3825938D2*
X11780262D1*
X11113515Y3587790D2*
X11970780D1*
X11923183Y3746556D2*
X11161112D1*
X11558013Y4016457D2*
G02X11558013Y3016349I-77299J-500054D01*
G01*
X11923183Y3270375D2*
X11161112D1*
X11780262Y3111609D2*
X11367496D1*
X6175793Y6491477D2*
X5995117D1*
G03X5889500Y6385857I2J-105619D01*
G01*
X5889503Y6359067D1*
G02X5785417Y6254953I-104088J-25D01*
G01*
X4288213Y6254947D1*
G03X4238500Y6205233I-2J-49711D01*
G01*
X6175793Y6731477D2*
X5765503D1*
G03X5635500Y6601477I4J-130008D01*
G01*
G02X5527100Y6493077I-108401J1D01*
G01*
X4175000D1*
G02X4127377Y6540700I-1J47623D01*
G01*
X6175793Y6571477D2*
X5916853D1*
G03X5810123Y6464750I-2J-106728D01*
G01*
G02X5675747Y6334327I-134421J4059D01*
G01*
X3556037D1*
G03X3381497Y6159787I-5J-174535D01*
G01*
X6175793Y6651477D2*
X5838547D1*
G03X5730750Y6543677I1J-107798D01*
G01*
G02X5596803Y6413707I-133989J4081D01*
G01*
X3143493Y6413700D1*
G02X3032130Y6525067I3J111366D01*
G01*
X7015793Y6411477D2*
X10609777D1*
G02X10985377Y6035877I-9J-375609D01*
G01*
Y5889823D1*
G03X11160000Y5715200I174626J2D01*
G01*
X12287123D1*
X7015793Y6331477D2*
X10559603D1*
G02X10890127Y6000950I-12J-330536D01*
G01*
Y4779783D1*
G03X10970677Y4699230I80547J-6D01*
G01*
X7015793Y6251477D2*
X7210600D1*
G02X7286500Y6175577I2J-75898D01*
G01*
Y5889827D1*
X7015793Y6171477D2*
Y5811283D1*
G03X7191103Y5635973I175308J-2D01*
G01*
X7842123Y5635827D1*
X7015793Y6491477D2*
X10841887D1*
G03X10986550Y6620267I-13061J160312D01*
G01*
X10954800D1*
X7015793Y6571477D2*
X9539773D1*
G03X9620127Y6651827I0J80353D01*
G01*
X9621210Y6699450D1*
X6475793Y6031477D2*
Y5763910D1*
G03X6556250Y5683450I80462J2D01*
G01*
X6635793Y6031477D2*
Y5762993D1*
G02X6556250Y5683450I-79545J2D01*
G01*
X7015793Y6731477D2*
X7080763D1*
G03X7239530Y6890243I-6J158772D01*
G01*
X7015793Y6651477D2*
X7350050D1*
G03X7509433Y6810860I-4J159387D01*
G01*
X6175793Y6411477D2*
X6427353D1*
X6445127Y6413700D1*
X6875793Y6871477D2*
Y6948950D1*
G02X7023483Y7096640I147687J3D01*
G01*
X7064887D1*
X6175793Y6171477D2*
X6004727D1*
X6175793Y6331477D2*
X6020110D1*
X6143500Y6032700D2*
X6314367D1*
G02X6315793Y6031477I295J-1099D01*
G01*
X6795793D2*
Y5763810D1*
X7969597Y6858230D2*
X8207747D1*
X8208007Y6858490D1*
X8690607D2*
X8922457D1*
X6875793Y6031477D2*
Y5858077D1*
X6715793Y6031477D2*
Y6254983D1*
G03X6636217Y6334560I-79998J-421D01*
G01*
G03X6555793Y6254137I-426J-79998D01*
G01*
Y6031477D1*
X6794983Y6636217D2*
Y6388777D1*
G02X6740770Y6334560I-54206J-10D01*
G01*
X6636217D1*
X6795793Y6871477D2*
X6794983Y6636217D1*
D33*
X4238500Y6205233D3*
X4127377Y6540700D3*
X7286500Y5889827D3*
X9621210Y6699450D3*
X6004727Y6171477D3*
X6020110Y6331477D3*
X6143500Y6032700D3*
X6795793Y5763810D3*
X6875793Y5858077D3*
X6794983Y6636217D3*
D3*
X9207373Y6016827D3*
X10683750Y6112077D3*
X11382250Y5842200D3*
X10239250Y6778827D3*
X10794873Y4238827D3*
X9239127Y5064327D3*
X7779337Y6683847D3*
X9112977Y6858490D3*
Y6683847D3*
X7779337Y6858490D3*
X8446157Y6906120D3*
Y6699723D3*
Y7112517D3*
X2476373Y5715200D3*
X1920750Y6207327D3*
X2063627Y5207200D3*
X2889127Y5207203D3*
X1158750Y6572453D3*
X6556833Y6620340D3*
X6382190Y6223423D3*
X3016125Y6143827D3*
X3873373Y6508953D3*
X5365627Y6604200D3*
X12541127Y4651577D3*
X6556250Y5683450D3*
X6984873Y4238827D3*
X6381627D3*
X7619873D3*
X7461127Y6143827D3*
X7143627Y6032703D3*
X12461750Y6445450D3*
X5524373Y6635953D3*
X1111127Y4476953D3*
X1650873Y7080453D3*
X6762627Y7112200D3*
X5572000D3*
X6191127D3*
X12842750Y7080453D3*
X13366627Y6588327D3*
X13128500Y4238827D3*
X13382500Y4508700D3*
X1381000Y4222950D3*
X3206627Y4222953D3*
X4778250Y5064327D3*
X8175500Y5016700D3*
X5683127Y5000827D3*
X6937250Y5334200D3*
X2476373Y5429453D3*
X1596193Y7078737D2*
D16*
X2293793D1*
X2691127D2*
X3551877D1*
X4163770D2*
X4420133D1*
X5540710D2*
X6795303D1*
X7767767D2*
X8131137D1*
X8284930D2*
X8613663D1*
X8767547D2*
X9663297D1*
X10275463D2*
X11109233D1*
X11879813D2*
X12913377D1*
X1596193Y7015570D2*
X2169833D1*
X2814993D2*
X3588337D1*
X4127313D2*
X4399170D1*
X5540710D2*
X6217163D1*
X8364317D2*
X8534273D1*
X9268120D2*
X9699757D1*
X10239003D2*
X11043973D1*
X11945163D2*
X12913377D1*
X1596193Y6952403D2*
X2089533D1*
X2895387D2*
X3658337D1*
X4057220D2*
X4397437D1*
X5540710D2*
X6217163D1*
X8393303D2*
X8505290D1*
X9268120D2*
X9769573D1*
X10169187D2*
X10998037D1*
X11991010D2*
X12913377D1*
X1596193Y6889237D2*
X2030747D1*
X2953993D2*
X4397437D1*
X5540710D2*
X6217163D1*
X8398680D2*
X8500003D1*
X9268120D2*
X10961760D1*
X12027287D2*
X12913377D1*
X1596193Y6826070D2*
X1984900D1*
X2999930D2*
X4397437D1*
X5540710D2*
X5677217D1*
X8398680D2*
X8500003D1*
X9268120D2*
X10933687D1*
X12055450D2*
X12913377D1*
X1596193Y6762903D2*
X1952817D1*
X3031920D2*
X4399533D1*
X5540710D2*
X5582790D1*
X8392937D2*
X8505653D1*
X9268120D2*
X9513817D1*
X9728587D2*
X10831787D1*
X12072493D2*
X12913377D1*
X1593640Y6699737D2*
X1925197D1*
X3097273D2*
X4421227D1*
X6351453D2*
X6679547D1*
X8363133D2*
X8535460D1*
X9268120D2*
X9495590D1*
X9746817D2*
X10782203D1*
X12085893D2*
X12915837D1*
X1531207Y6636570D2*
X1911253D1*
X3185230D2*
X4050080D1*
X4204697D2*
X4480017D1*
X4696153D2*
X4734040D1*
X4950177D2*
X4988063D1*
X6351453D2*
X6669340D1*
X9734970D2*
X10764887D1*
X12087990D2*
X12976997D1*
X1088147Y6573403D2*
X1899040D1*
X3216310D2*
X4006330D1*
X6351453D2*
X6422880D1*
X6467387D2*
X6679363D1*
X12087897D2*
X13421423D1*
X1088147Y6510237D2*
X1898947D1*
X6579683D2*
X6679363D1*
X12075957D2*
X13421423D1*
X1088147Y6447070D2*
X1900770D1*
X6608483D2*
X6679363D1*
X12062197D2*
X13421423D1*
X1088147Y6383903D2*
X1914170D1*
X12034760D2*
X13421423D1*
X1088147Y6320737D2*
X1449690D1*
X1725163D2*
X1930850D1*
X12003133D2*
X13421423D1*
X1088147Y6257570D2*
X1409040D1*
X1765813D2*
X1958923D1*
X3025813D2*
X3218923D1*
X6351453D2*
X6401643D1*
X11957287D2*
X12565563D1*
X13088133D2*
X13421423D1*
X1088147Y6194403D2*
X1364470D1*
X1826337D2*
X1994833D1*
X2989903D2*
X3194130D1*
X3568863D2*
X4113337D1*
X7401087D2*
X8156840D1*
X8606767D2*
X9799650D1*
X10522197D2*
X10659613D1*
X11899043D2*
X12465667D1*
X13187937D2*
X13421423D1*
X1088147Y6131237D2*
X1250173D1*
X1940633D2*
X2040770D1*
X2944057D2*
X3088947D1*
X3689993D2*
X4138583D1*
X4338407D2*
X5122777D1*
X5799930D2*
X5886123D1*
X7402183D2*
X8043453D1*
X8720243D2*
X9730380D1*
X10591557D2*
X10731437D1*
X11090763D2*
X11169757D1*
X11819200D2*
X12396397D1*
X13257390D2*
X13421423D1*
X1088147Y6068070D2*
X1173883D1*
X2016920D2*
X2105393D1*
X2879433D2*
X3000993D1*
X3777950D2*
X5047400D1*
X5875307D2*
X5938897D1*
X7402183D2*
X7967983D1*
X8795620D2*
X9679430D1*
X10642417D2*
X10763337D1*
X11099147D2*
X11291800D1*
X11697157D2*
X12345447D1*
X13308250D2*
X13421423D1*
X2074343Y6004903D2*
X2191253D1*
X2793667D2*
X2937647D1*
X3841297D2*
X4991617D1*
X5930997D2*
X6021110D1*
X7131480D2*
X7170823D1*
X7402183D2*
X7912203D1*
X8851493D2*
X9637413D1*
X10684527D2*
X10774000D1*
X11101063D2*
X12303337D1*
X13350450D2*
X13421423D1*
X2116727Y5941737D2*
X2337270D1*
X2647650D2*
X2888427D1*
X3890517D2*
X4945953D1*
X5976660D2*
X6059937D1*
X7131480D2*
X7170823D1*
X7402183D2*
X7866540D1*
X8897157D2*
X9609247D1*
X10712690D2*
X10774457D1*
X11101063D2*
X12275173D1*
X13378523D2*
X13421423D1*
X2148900Y5878570D2*
X2850693D1*
X3928250D2*
X4916787D1*
X6005827D2*
X6200120D1*
X7411570D2*
X7837463D1*
X8926323D2*
X9529403D1*
X10734473D2*
X10774457D1*
X11102337D2*
X12195510D1*
X2172507Y5815403D2*
X2822530D1*
X3956413D2*
X4891267D1*
X6092327D2*
X6680187D1*
X7131480D2*
X7186957D1*
X7386050D2*
X7794353D1*
X8951933D2*
X9460133D1*
X2188457Y5752237D2*
X2803023D1*
X3975920D2*
X4877777D1*
X6161960D2*
X6670707D1*
X7168757D2*
X7692907D1*
X8965333D2*
X9434340D1*
X2190280Y5689070D2*
X2790900D1*
X3987950D2*
X4867933D1*
X6187937D2*
X6696500D1*
X6895137D2*
X6928103D1*
X8975267D2*
X9432423D1*
X2189370Y5625903D2*
X2793453D1*
X3985397D2*
X4867933D1*
X6189850D2*
X6969300D1*
X8975267D2*
X9453753D1*
X11005723D2*
X11049170D1*
X2190737Y5562737D2*
X2790993D1*
X3987950D2*
X4872033D1*
X6168707D2*
X7046227D1*
X8971167D2*
X9511540D1*
X10733380D2*
X10774457D1*
X11005723D2*
X12177280D1*
X2176063Y5499570D2*
X2800563D1*
X3978290D2*
X4885433D1*
X6111193D2*
X7711683D1*
X8957767D2*
X9611617D1*
X10710320D2*
X10774457D1*
X11005723D2*
X12277450D1*
X13376337D2*
X13421423D1*
X2153730Y5436403D2*
X2818700D1*
X3960150D2*
X4904757D1*
X6017860D2*
X7825250D1*
X8938537D2*
X9639690D1*
X10682247D2*
X10774457D1*
X11005723D2*
X12305613D1*
X13348170D2*
X13421423D1*
X2123017Y5373237D2*
X2844677D1*
X3934267D2*
X4932830D1*
X5989787D2*
X7853323D1*
X8910373D2*
X9683257D1*
X10638680D2*
X10774457D1*
X11005723D2*
X12349090D1*
X13304603D2*
X13421423D1*
X2082363Y5310070D2*
X2880317D1*
X3898627D2*
X4971840D1*
X5950777D2*
X7892333D1*
X8871453D2*
X9736123D1*
X10585723D2*
X10774457D1*
X11005723D2*
X12401957D1*
X13251830D2*
X13421423D1*
X1088147Y5246903D2*
X1162127D1*
X2028680D2*
X2242113D1*
X2742717D2*
X2927620D1*
X3851230D2*
X5018870D1*
X5903743D2*
X7939273D1*
X8824420D2*
X9806580D1*
X10515177D2*
X10774457D1*
X11005723D2*
X11260080D1*
X11760683D2*
X12472413D1*
X13181283D2*
X13421423D1*
X1088147Y5183737D2*
X1234497D1*
X1956310D2*
X2138387D1*
X2846440D2*
X2986317D1*
X3792623D2*
X5087320D1*
X5835477D2*
X8007633D1*
X8755970D2*
X9910210D1*
X10411637D2*
X10774457D1*
X11005723D2*
X11156357D1*
X11864410D2*
X12575863D1*
X13077743D2*
X13421423D1*
X1088147Y5120570D2*
X1338857D1*
X1851947D2*
X2067750D1*
X2916897D2*
X3071813D1*
X3707130D2*
X5180197D1*
X5742600D2*
X8100420D1*
X8663183D2*
X10774457D1*
X11005723D2*
X11085810D1*
X11935047D2*
X13421423D1*
X1088147Y5057403D2*
X2014793D1*
X2969850D2*
X3206710D1*
X3572143D2*
X5353830D1*
X5568967D2*
X8273687D1*
X8489917D2*
X10774457D1*
X11988003D2*
X13421423D1*
X1088147Y4994237D2*
X1971227D1*
X3013510D2*
X4598507D1*
X4958017D2*
X9035483D1*
X9395177D2*
X10774457D1*
X12031570D2*
X13421423D1*
X1088147Y4931070D2*
X1943063D1*
X3041673D2*
X4260627D1*
X5295893D2*
X8695877D1*
X9734787D2*
X10774457D1*
X12059733D2*
X13421423D1*
X1088147Y4867903D2*
X1920003D1*
X3141570D2*
X4076787D1*
X5479733D2*
X8511123D1*
X9919540D2*
X10774457D1*
X12082793D2*
X13421423D1*
X1088147Y4804737D2*
X1906513D1*
X3199447D2*
X3935510D1*
X5621010D2*
X8369210D1*
X10061453D2*
X10774457D1*
X12096193D2*
X13421423D1*
X1088147Y4741570D2*
X1898947D1*
X3220867D2*
X3820667D1*
X5735853D2*
X8253817D1*
X10176843D2*
X10778557D1*
X12103850D2*
X13421423D1*
X1088147Y4678403D2*
X1898947D1*
X3219043D2*
X3721410D1*
X5835113D2*
X8154013D1*
X10276647D2*
X10781200D1*
X12103850D2*
X13421423D1*
X1088147Y4615237D2*
X1905330D1*
X3193340D2*
X3634730D1*
X5921790D2*
X8066787D1*
X10363783D2*
X10800250D1*
X12097377D2*
X13421423D1*
X1088147Y4552070D2*
X1918817D1*
X3124343D2*
X3557983D1*
X5998447D2*
X7989677D1*
X10440983D2*
X10853387D1*
X12083980D2*
X13421423D1*
X1088147Y4488903D2*
X1940510D1*
X3044137D2*
X3488530D1*
X6067990D2*
X7919770D1*
X10510803D2*
X10958663D1*
X12062197D2*
X13421423D1*
X1109747Y4425737D2*
X1968673D1*
X3015970D2*
X3424913D1*
X6131610D2*
X7855693D1*
X10574970D2*
X10986733D1*
X12034123D2*
X13399820D1*
X1172910Y4362570D2*
X2010693D1*
X2973953D2*
X3366943D1*
X6189577D2*
X7797360D1*
X10633303D2*
X11028843D1*
X11992013D2*
X13336657D1*
X1236077Y4299403D2*
X2061553D1*
X2923183D2*
X3315263D1*
X6241257D2*
X7745317D1*
X10685347D2*
X11079613D1*
X11941243D2*
X13273493D1*
X1299240Y4236237D2*
X2130913D1*
X2853913D2*
X3266863D1*
X6289657D2*
X7696460D1*
X10734200D2*
X11148883D1*
X11871883D2*
X13210330D1*
X3198153Y6177447D2*
X3202300Y6202807D1*
X3211233Y6230310D1*
X3224363Y6256077D1*
X3241360Y6279473D1*
X3261810Y6299923D1*
X3267537Y6304437D1*
X3133437Y6304833D1*
X3107633Y6307463D1*
X3087767Y6311570D1*
X3060377Y6320670D1*
X3049710Y6325553D1*
X3005407Y6226330D1*
X2998050Y6214323D1*
X2933740Y6126020D1*
X2924047Y6115803D1*
X2908263Y6101593D1*
X2887740Y6080657D1*
X2841533Y6041547D1*
X2791610Y6007307D1*
X2738480Y5978287D1*
X2682693Y5954787D1*
X2624813Y5937047D1*
X2567520Y5925483D1*
X2553053Y5924807D1*
X2538660Y5926397D1*
X2524717Y5930213D1*
X2497077Y5927423D1*
X2483000Y5927790D1*
X2460063Y5930200D1*
X2446230Y5926397D1*
X2431837Y5924807D1*
X2417370Y5925483D1*
X2358027Y5937493D1*
X2300203Y5955440D1*
X2244490Y5979137D1*
X2191457Y6008347D1*
X2141650Y6042763D1*
X2095573Y6082040D1*
X2077393Y6100780D1*
X2057303Y6119040D1*
X2048157Y6129747D1*
X1984050Y6218193D1*
X1977330Y6230570D1*
X1933010Y6330413D1*
X1929010Y6343917D1*
X1906083Y6453120D1*
X1905317Y6488167D1*
X1905440Y6574070D1*
X1907277Y6588033D1*
X1930110Y6694857D1*
X1934810Y6708133D1*
X1979353Y6807877D1*
X1986710Y6819883D1*
X2051020Y6908187D1*
X2060713Y6918403D1*
X2077307Y6933343D1*
X2097147Y6953550D1*
X2143353Y6992660D1*
X2193277Y7026900D1*
X2246407Y7055920D1*
X2302197Y7079420D1*
X2360077Y7097160D1*
X2417370Y7108723D1*
X2431837Y7109400D1*
X2446230Y7107810D1*
X2460117Y7104010D1*
X2487683Y7106783D1*
X2501760Y7106417D1*
X2524697Y7104007D1*
X2538660Y7107810D1*
X2553053Y7109400D1*
X2567520Y7108723D1*
X2626860Y7096713D1*
X2684683Y7078767D1*
X2740397Y7055070D1*
X2793430Y7025860D1*
X2843240Y6991443D1*
X2889313Y6952167D1*
X2908247Y6932633D1*
X2932240Y6909993D1*
X2998023Y6819920D1*
X3004313Y6809957D1*
X3049790Y6708493D1*
X3075150Y6704263D1*
X3102653Y6695330D1*
X3128420Y6682200D1*
X3151817Y6665203D1*
X3172267Y6644753D1*
X3189263Y6621357D1*
X3202393Y6595590D1*
X3211327Y6568087D1*
X3215853Y6539527D1*
X3216337Y6522977D1*
X4009470Y6522993D1*
X4008087Y6540700D1*
X4009557Y6559360D1*
X4013927Y6577563D1*
X4021090Y6594857D1*
X4030870Y6610817D1*
X4043027Y6625050D1*
X4057260Y6637207D1*
X4073220Y6646987D1*
X4090513Y6654150D1*
X4108717Y6658520D1*
X4127377Y6659990D1*
X4146037Y6658520D1*
X4164240Y6654150D1*
X4181533Y6646987D1*
X4197493Y6637207D1*
X4211727Y6625050D1*
X4223883Y6610817D1*
X4229463Y6602360D1*
X5526040Y6602533D1*
X5526270Y6605963D1*
X5165810Y6605953D1*
Y6619717D1*
X5139120Y6611047D1*
X5110560Y6606520D1*
X5081640D1*
X5053080Y6611047D1*
X5025577Y6619980D1*
X4999810Y6633110D1*
X4976413Y6650107D1*
X4969150Y6656823D1*
X4950423Y6641150D1*
X4925767Y6626040D1*
X4899050Y6614973D1*
X4870930Y6608223D1*
X4842100Y6605953D1*
X4813270Y6608223D1*
X4785150Y6614973D1*
X4758433Y6626040D1*
X4733777Y6641150D1*
X4715150Y6656823D1*
X4696423Y6641150D1*
X4671767Y6626040D1*
X4645050Y6614973D1*
X4616930Y6608223D1*
X4588100Y6605953D1*
X4559270Y6608223D1*
X4531150Y6614973D1*
X4504433Y6626040D1*
X4479777Y6641150D1*
X4457787Y6659930D1*
X4439007Y6681920D1*
X4423897Y6706577D1*
X4412830Y6733293D1*
X4406080Y6761413D1*
X4403813Y6790300D1*
X4404377Y7004703D1*
X4408903Y7033263D1*
X4417837Y7060767D1*
X4430967Y7086533D1*
X4447963Y7109930D1*
X4468413Y7130380D1*
X4483583Y7141880D1*
X4180343Y7141903D1*
X4173857Y7108030D1*
X4160047Y7083323D1*
X4115253Y7006903D1*
X4093823Y6988413D1*
X4025593Y6931920D1*
X3999133Y6921873D1*
X3915697Y6892127D1*
X3887397Y6891737D1*
X3798820Y6892320D1*
X3772090Y6901630D1*
X3689053Y6932473D1*
X3667123Y6950367D1*
X3599643Y7007750D1*
X3585153Y7032060D1*
X3541367Y7109067D1*
X3535167Y7141987D1*
X1589883Y7141903D1*
X1589707Y6713110D1*
X1584807Y6687853D1*
X1581950Y6680957D1*
X1566720Y6658687D1*
X1561047Y6653840D1*
X1540480Y6640573D1*
X1533383Y6638267D1*
X1508053Y6633850D1*
X1081763D1*
X1081750Y5944180D1*
X1090550Y5958940D1*
X1125567Y6008320D1*
X1165393Y6053913D1*
X1186603Y6075127D1*
X1202510Y6091647D1*
X1292583Y6157430D1*
X1302547Y6163720D1*
X1404010Y6209197D1*
X1408240Y6234557D1*
X1417173Y6262060D1*
X1430303Y6287827D1*
X1447300Y6311223D1*
X1467750Y6331673D1*
X1491147Y6348670D1*
X1516913Y6361800D1*
X1544417Y6370733D1*
X1572977Y6375260D1*
X1601897D1*
X1630457Y6370733D1*
X1657960Y6361800D1*
X1683727Y6348670D1*
X1707123Y6331673D1*
X1727573Y6311223D1*
X1744570Y6287827D1*
X1757700Y6262060D1*
X1766633Y6234557D1*
X1770117Y6214810D1*
X1786430Y6209357D1*
X1886173Y6164813D1*
X1898180Y6157457D1*
X1986483Y6093147D1*
X1996700Y6083453D1*
X2010910Y6067670D1*
X2031847Y6047147D1*
X2070957Y6000940D1*
X2105197Y5951017D1*
X2134217Y5897887D1*
X2157717Y5842100D1*
X2175457Y5784220D1*
X2187020Y5726927D1*
X2187697Y5712460D1*
X2186107Y5698067D1*
X2182290Y5684123D1*
X2185080Y5656483D1*
X2184713Y5642407D1*
X2182303Y5619470D1*
X2186107Y5605637D1*
X2187697Y5591243D1*
X2187020Y5576777D1*
X2175010Y5517433D1*
X2157717Y5461603D1*
X2134237Y5405863D1*
X2118750Y5377043D1*
X2100250Y5344763D1*
X2065233Y5295380D1*
X2025407Y5249790D1*
X2004197Y5228447D1*
X1988290Y5211927D1*
X1898217Y5146143D1*
X1888253Y5139853D1*
X1786470Y5094233D1*
X1775417Y5090153D1*
X1666373Y5066693D1*
X1654710Y5065000D1*
X1543173Y5064723D1*
X1531417Y5065490D1*
X1422257Y5088410D1*
X1410917Y5091603D1*
X1308907Y5136720D1*
X1298480Y5142203D1*
X1208080Y5207540D1*
X1199020Y5215070D1*
X1179160Y5236713D1*
X1158953Y5256553D1*
X1121047Y5301080D1*
X1085603Y5352683D1*
X1081750Y5358933D1*
Y4447380D1*
X1335470Y4193623D1*
X2200010Y4193577D1*
X2185323Y4202327D1*
X2135940Y4237343D1*
X2090350Y4277170D1*
X2069007Y4298380D1*
X2052487Y4314287D1*
X1986703Y4404360D1*
X1980413Y4414323D1*
X1934793Y4516107D1*
X1930713Y4527160D1*
X1907253Y4636203D1*
X1905560Y4647867D1*
X1905283Y4759403D1*
X1906050Y4771160D1*
X1928970Y4880320D1*
X1932163Y4891660D1*
X1977280Y4993667D1*
X1982763Y5004097D1*
X2048100Y5094497D1*
X2055633Y5103557D1*
X2077273Y5123417D1*
X2097113Y5143623D1*
X2143320Y5182733D1*
X2193243Y5216973D1*
X2246373Y5245993D1*
X2302163Y5269493D1*
X2360043Y5287233D1*
X2417337Y5298797D1*
X2431803Y5299473D1*
X2446197Y5297883D1*
X2460083Y5294083D1*
X2489997Y5296950D1*
X2531567Y5296243D1*
X2545790Y5298960D1*
X2560267Y5299420D1*
X2574633Y5297607D1*
X2633817Y5284880D1*
X2691413Y5266240D1*
X2746830Y5241870D1*
X2799500Y5212027D1*
X2848880Y5177010D1*
X2894473Y5137183D1*
X2915687Y5115973D1*
X2932207Y5100067D1*
X2997990Y5009993D1*
X3004280Y5000030D1*
X3049757Y4898567D1*
X3075117Y4894337D1*
X3102620Y4885403D1*
X3128387Y4872273D1*
X3151783Y4855277D1*
X3172233Y4834827D1*
X3189230Y4811430D1*
X3202360Y4785663D1*
X3211293Y4758160D1*
X3215820Y4729600D1*
Y4700680D1*
X3211293Y4672120D1*
X3202360Y4644617D1*
X3189230Y4618850D1*
X3172233Y4595453D1*
X3151783Y4575003D1*
X3128387Y4558007D1*
X3102620Y4544877D1*
X3075117Y4535943D1*
X3055370Y4532460D1*
X3049917Y4516147D1*
X3005373Y4416403D1*
X2998017Y4404397D1*
X2933707Y4316093D1*
X2924013Y4305877D1*
X2908230Y4291667D1*
X2887707Y4270730D1*
X2841500Y4231620D1*
X2791577Y4197380D1*
X2784807Y4193613D1*
X3243447Y4193577D1*
X3288730Y4258390D1*
X3365977Y4354600D1*
X3449423Y4445483D1*
X3538710Y4530637D1*
X3633440Y4609690D1*
X3733200Y4682297D1*
X3837543Y4748133D1*
X3946027Y4806913D1*
X4058160Y4858383D1*
X4173460Y4902307D1*
X4291413Y4938503D1*
X4411507Y4966807D1*
X4533207Y4987087D1*
X4655990Y4999267D1*
X4779303Y5003283D1*
X4902620Y4999127D1*
X5025383Y4986810D1*
X5145010Y4966800D1*
X5267123Y4937950D1*
X5385037Y4901623D1*
X5500283Y4857567D1*
X5612363Y4805973D1*
X5720773Y4747067D1*
X5825047Y4681110D1*
X5924723Y4608393D1*
X6019363Y4529233D1*
X6108553Y4443977D1*
X6191897Y4353000D1*
X6269033Y4256703D1*
X6313133Y4193560D1*
X7672780Y4193577D1*
X7718737Y4258723D1*
X7796630Y4354940D1*
X7880700Y4445817D1*
X7970580Y4530947D1*
X8065873Y4609967D1*
X8166173Y4682533D1*
X8271040Y4748323D1*
X8378150Y4806130D1*
X8492630Y4858483D1*
X8608383Y4902363D1*
X8726783Y4938520D1*
X8847310Y4966790D1*
X8969437Y4987050D1*
X9092633Y4999217D1*
X9216363Y5003230D1*
X9340090Y4999077D1*
X9463273Y4986777D1*
X9585377Y4966377D1*
X9705870Y4937973D1*
X9824230Y4901687D1*
X9939937Y4857670D1*
X10052493Y4806123D1*
X10161403Y4747267D1*
X10266193Y4681357D1*
X10366410Y4608680D1*
X10461620Y4529553D1*
X10551403Y4444320D1*
X10635370Y4353353D1*
X10711897Y4258713D1*
X10757947Y4193503D1*
X11218033Y4193573D1*
X11203273Y4202343D1*
X11153893Y4237360D1*
X11108300Y4277187D1*
X11087087Y4298397D1*
X11073710Y4310813D1*
X11052490Y4338717D1*
X11002097Y4408287D1*
X10995377Y4420663D1*
X10953017Y4515803D1*
X10927657Y4520033D1*
X10900153Y4528967D1*
X10874387Y4542097D1*
X10850990Y4559093D1*
X10830540Y4579543D1*
X10813543Y4602940D1*
X10800413Y4628707D1*
X10791480Y4656210D1*
X10786953Y4684770D1*
Y4713690D1*
X10788477Y4726543D1*
X10783623Y4747953D1*
X10781347Y4768437D1*
X10780837Y4849783D1*
X10780503Y6002427D1*
X10778420Y6031250D1*
X10772593Y6059550D1*
X10763120Y6086850D1*
X10750167Y6112680D1*
X10733953Y6136600D1*
X10714753Y6158197D1*
X10692903Y6177103D1*
X10668770Y6192997D1*
X10642767Y6205603D1*
X10615343Y6214710D1*
X10586963Y6220157D1*
X10555990Y6222190D1*
X10476570Y6222187D1*
X10517367Y6193107D1*
X10562957Y6153280D1*
X10584300Y6132070D1*
X10600820Y6116163D1*
X10666630Y6026053D1*
X10674000Y6014020D1*
X10720327Y5909963D1*
X10724327Y5896460D1*
X10746920Y5789583D1*
X10748023Y5775543D1*
X10747900Y5666307D1*
X10746063Y5652343D1*
X10723230Y5545520D1*
X10718530Y5532243D1*
X10673987Y5432500D1*
X10666630Y5420493D1*
X10602320Y5332190D1*
X10592627Y5321973D1*
X10576033Y5307033D1*
X10556193Y5286827D1*
X10509987Y5247717D1*
X10460063Y5213477D1*
X10406933Y5184457D1*
X10351143Y5160957D1*
X10293263Y5143217D1*
X10235970Y5131653D1*
X10221503Y5130977D1*
X10207110Y5132567D1*
X10193223Y5136367D1*
X10163310Y5133500D1*
X10121740Y5134207D1*
X10107517Y5131490D1*
X10093040Y5131030D1*
X10078673Y5132843D1*
X10019490Y5145570D1*
X9961893Y5164210D1*
X9906477Y5188580D1*
X9853807Y5218423D1*
X9806007Y5252110D1*
X9758833Y5293267D1*
X9737620Y5314477D1*
X9721100Y5330383D1*
X9655317Y5420457D1*
X9649027Y5430420D1*
X9603550Y5531883D1*
X9578190Y5536113D1*
X9550687Y5545047D1*
X9524920Y5558177D1*
X9501523Y5575173D1*
X9481073Y5595623D1*
X9464077Y5619020D1*
X9450947Y5644787D1*
X9442013Y5672290D1*
X9437487Y5700850D1*
Y5729770D1*
X9442013Y5758330D1*
X9450947Y5785833D1*
X9464077Y5811600D1*
X9481073Y5834997D1*
X9501523Y5855447D1*
X9524920Y5872443D1*
X9550687Y5885573D1*
X9578190Y5894507D1*
X9597937Y5897990D1*
X9603390Y5914303D1*
X9647933Y6014047D1*
X9655290Y6026053D1*
X9719600Y6114357D1*
X9729293Y6124573D1*
X9745077Y6138783D1*
X9765600Y6159720D1*
X9811807Y6198830D1*
X9845223Y6222137D1*
X8520943Y6222187D1*
X8580813Y6202853D1*
X8636227Y6178483D1*
X8688897Y6148640D1*
X8736697Y6114953D1*
X8783870Y6073797D1*
X8805213Y6052587D1*
X8821733Y6036680D1*
X8887517Y5946607D1*
X8893807Y5936643D1*
X8939427Y5834860D1*
X8943507Y5823807D1*
X8966967Y5714763D1*
X8968660Y5703100D1*
X8968937Y5591563D1*
X8968170Y5579807D1*
X8945250Y5470647D1*
X8942057Y5459307D1*
X8896940Y5357297D1*
X8891457Y5346870D1*
X8826120Y5256470D1*
X8818590Y5247410D1*
X8796947Y5227550D1*
X8777107Y5207343D1*
X8730900Y5168233D1*
X8680977Y5133993D1*
X8627847Y5104973D1*
X8574020Y5082117D1*
X8514177Y5063733D1*
X8456883Y5052170D1*
X8442417Y5051493D1*
X8428023Y5053083D1*
X8414137Y5056883D1*
X8384223Y5054017D1*
X8342653Y5054723D1*
X8328430Y5052007D1*
X8313953Y5051547D1*
X8299587Y5053360D1*
X8240403Y5066087D1*
X8182807Y5084727D1*
X8127390Y5109097D1*
X8074720Y5138940D1*
X8025340Y5173957D1*
X7979747Y5213783D1*
X7958533Y5234993D1*
X7942013Y5250900D1*
X7876230Y5340973D1*
X7869940Y5350937D1*
X7824463Y5452400D1*
X7799103Y5456630D1*
X7771600Y5465563D1*
X7745833Y5478693D1*
X7722437Y5495690D1*
X7701987Y5516140D1*
X7693763Y5526570D1*
X7179380Y5527217D1*
X7152507Y5529320D1*
X7116033Y5536770D1*
X7080843Y5548917D1*
X7047540Y5565553D1*
X7016693Y5586393D1*
X6988833Y5611083D1*
X6964433Y5639197D1*
X6945353Y5667750D1*
X6931117Y5695857D1*
X6922700Y5717750D1*
X6915833Y5739040D1*
X6911787Y5735963D1*
X6906003Y5718160D1*
X6897503Y5701480D1*
X6886503Y5686337D1*
X6873267Y5673100D1*
X6858123Y5662100D1*
X6841443Y5653600D1*
X6823640Y5647817D1*
X6805153Y5644887D1*
X6786433D1*
X6767947Y5647817D1*
X6750143Y5653600D1*
X6733463Y5662100D1*
X6718320Y5673100D1*
X6705083Y5686337D1*
X6694083Y5701480D1*
X6685583Y5718160D1*
X6679800Y5735963D1*
X6676870Y5754450D1*
Y5773170D1*
X6679800Y5791657D1*
X6685583Y5809460D1*
X6686517Y5811487D1*
X6686503Y5862157D1*
X6206503Y5862187D1*
Y5923347D1*
X6191230Y5923410D1*
X6180363Y5919250D1*
X6162160Y5914880D1*
X6143500Y5913410D1*
X6124840Y5914880D1*
X6106637Y5919250D1*
X6089343Y5926413D1*
X6073383Y5936193D1*
X6059150Y5948350D1*
X6046993Y5962583D1*
X6037213Y5978543D1*
X6030050Y5995837D1*
X6025680Y6014040D1*
X6024210Y6032700D1*
X6025680Y6051360D1*
X6026227Y6054123D1*
X6004727Y6052187D1*
X5986067Y6053657D1*
X5967863Y6058027D1*
X5950570Y6065190D1*
X5934610Y6074970D1*
X5920377Y6087127D1*
X5908220Y6101360D1*
X5898440Y6117320D1*
X5891277Y6134613D1*
X5886907Y6152817D1*
X5885467Y6170710D1*
X5868403Y6162467D1*
X5842030Y6153317D1*
X5814690Y6147687D1*
X5785417Y6145663D1*
X5772930D1*
X5817843Y6113737D1*
X5863433Y6073910D1*
X5884647Y6052700D1*
X5901167Y6036793D1*
X5966950Y5946720D1*
X5973240Y5936757D1*
X6018720Y5835293D1*
X6044080Y5831063D1*
X6071583Y5822130D1*
X6097350Y5809000D1*
X6120747Y5792003D1*
X6141193Y5771553D1*
X6158190Y5748157D1*
X6171320Y5722390D1*
X6180257Y5694887D1*
X6184780Y5666327D1*
Y5637407D1*
X6180257Y5608847D1*
X6171320Y5581343D1*
X6158190Y5555577D1*
X6141193Y5532180D1*
X6120747Y5511730D1*
X6097350Y5494733D1*
X6071583Y5481603D1*
X6044080Y5472670D1*
X6024330Y5469187D1*
X6018880Y5452873D1*
X5974337Y5353130D1*
X5966977Y5341123D1*
X5902670Y5252820D1*
X5892977Y5242603D1*
X5877193Y5228393D1*
X5856670Y5207457D1*
X5812143Y5169550D1*
X5760540Y5134107D1*
X5707410Y5105087D1*
X5651620Y5081587D1*
X5593740Y5063847D1*
X5536447Y5052283D1*
X5521980Y5051607D1*
X5507587Y5053197D1*
X5493647Y5057013D1*
X5466007Y5054223D1*
X5451927Y5054590D1*
X5428993Y5057000D1*
X5415157Y5053197D1*
X5400763Y5051607D1*
X5386297Y5052283D1*
X5326957Y5064293D1*
X5269133Y5082240D1*
X5213420Y5105937D1*
X5160387Y5135147D1*
X5110577Y5169563D1*
X5064503Y5208840D1*
X5046320Y5227580D1*
X5026233Y5245840D1*
X5017087Y5256547D1*
X4952977Y5344997D1*
X4946257Y5357373D1*
X4901940Y5457213D1*
X4897940Y5470717D1*
X4875350Y5577593D1*
X4874243Y5591633D1*
X4874367Y5700870D1*
X4876203Y5714833D1*
X4899037Y5821657D1*
X4903737Y5834933D1*
X4948280Y5934677D1*
X4955640Y5946683D1*
X5019947Y6034987D1*
X5029640Y6045203D1*
X5046237Y6060143D1*
X5066077Y6080350D1*
X5112283Y6119460D1*
X5149887Y6145687D1*
X4341757Y6145657D1*
X4335007Y6135117D1*
X4322850Y6120883D1*
X4308617Y6108727D1*
X4292657Y6098947D1*
X4275363Y6091783D1*
X4257160Y6087413D1*
X4238500Y6085943D1*
X4219840Y6087413D1*
X4201637Y6091783D1*
X4184343Y6098947D1*
X4168383Y6108727D1*
X4154150Y6120883D1*
X4141993Y6135117D1*
X4132213Y6151077D1*
X4125050Y6168370D1*
X4120680Y6186573D1*
X4119210Y6205233D1*
X4120900Y6225007D1*
X3553980Y6224667D1*
X3560693Y6202807D1*
X3564177Y6183060D1*
X3580490Y6177607D1*
X3680233Y6133063D1*
X3692240Y6125707D1*
X3780543Y6061397D1*
X3790760Y6051703D1*
X3804970Y6035920D1*
X3825907Y6015397D1*
X3865017Y5969190D1*
X3899257Y5919267D1*
X3927437Y5868027D1*
X3951777Y5810350D1*
X3969517Y5752470D1*
X3981080Y5695177D1*
X3981757Y5680710D1*
X3980167Y5666317D1*
X3976350Y5652373D1*
X3979140Y5624733D1*
X3978773Y5610657D1*
X3976363Y5587720D1*
X3980167Y5573887D1*
X3981757Y5559493D1*
X3981080Y5545027D1*
X3969070Y5485683D1*
X3951123Y5427860D1*
X3927427Y5372147D1*
X3898217Y5319113D1*
X3863800Y5269307D1*
X3824523Y5223230D1*
X3805783Y5205050D1*
X3785840Y5183320D1*
X3757937Y5162100D1*
X3688367Y5111707D1*
X3675990Y5104987D1*
X3576150Y5060667D1*
X3562647Y5056670D1*
X3455770Y5034077D1*
X3441730Y5032973D1*
X3332493Y5033097D1*
X3318530Y5034933D1*
X3211707Y5057767D1*
X3198430Y5062467D1*
X3098687Y5107010D1*
X3086680Y5114367D1*
X2998377Y5178677D1*
X2988160Y5188370D1*
X2973220Y5204963D1*
X2953013Y5224803D1*
X2913903Y5271010D1*
X2879663Y5320933D1*
X2850643Y5374063D1*
X2827143Y5429853D1*
X2809403Y5487733D1*
X2797840Y5545027D1*
X2797163Y5559493D1*
X2798753Y5573887D1*
X2802553Y5587773D1*
X2799687Y5617687D1*
X2800393Y5659257D1*
X2797677Y5673480D1*
X2797217Y5687957D1*
X2799030Y5702323D1*
X2811757Y5761507D1*
X2830397Y5819103D1*
X2854767Y5874520D1*
X2883450Y5925480D1*
X2919627Y5976570D1*
X2959453Y6022163D1*
X2980663Y6043377D1*
X2996570Y6059897D1*
X3086643Y6125680D1*
X3096607Y6131970D1*
X3198070Y6177447D1*
X7693833Y5745170D2*
X7711810Y5766140D1*
X7733800Y5784920D1*
X7758457Y5800030D1*
X7785173Y5811097D1*
X7813293Y5817847D1*
X7818850Y5818507D1*
X7822517Y5830503D1*
X7868847Y5934563D1*
X7876203Y5946570D1*
X7940513Y6034873D1*
X7950207Y6045090D1*
X7965990Y6059300D1*
X7986513Y6080237D1*
X8032720Y6119347D1*
X8082643Y6153587D1*
X8135773Y6182607D1*
X8191560Y6206107D1*
X8242433Y6222110D1*
X7389823Y6222187D1*
X7394010Y6201163D1*
X7395790Y6175577D1*
Y5937593D1*
X7402493Y5917673D1*
X7405423Y5899187D1*
Y5880467D1*
X7402493Y5861980D1*
X7396710Y5844177D1*
X7388210Y5827497D1*
X7377210Y5812353D1*
X7363973Y5799117D1*
X7348830Y5788117D1*
X7332150Y5779617D1*
X7314347Y5773833D1*
X7295860Y5770903D1*
X7277140D1*
X7258653Y5773833D1*
X7240850Y5779617D1*
X7224170Y5788117D1*
X7209027Y5799117D1*
X7195790Y5812353D1*
X7184790Y5827497D1*
X7176290Y5844177D1*
X7170507Y5861980D1*
X7167577Y5880467D1*
Y5899187D1*
X7170507Y5917673D1*
X7176290Y5935477D1*
X7177223Y5937503D1*
X7177210Y6062183D1*
X7125020Y6062187D1*
X7125450Y5809277D1*
X7127167Y5796227D1*
X7130330Y5786093D1*
X7137797Y5772907D1*
X7144597Y5764753D1*
X7156540Y5755427D1*
X7165940Y5750500D1*
X7180547Y5746453D1*
X7194693Y5745263D1*
X7693797Y5745150D1*
X12269463Y5531857D2*
X12244103Y5536003D1*
X12216600Y5544937D1*
X12190833Y5558067D1*
X12167437Y5575063D1*
X12146987Y5595513D1*
X12138763Y5605943D1*
X11159967Y5605910D1*
X11121490Y5608540D1*
X11085107Y5615973D1*
X11050003Y5628093D1*
X11016780Y5644690D1*
X10999403Y5656123D1*
X10999417Y5001717D1*
X11018473Y5028850D1*
X11069067Y5098277D1*
X11078760Y5108493D1*
X11094543Y5122703D1*
X11115067Y5143640D1*
X11161273Y5182750D1*
X11211197Y5216990D1*
X11264327Y5246010D1*
X11320113Y5269510D1*
X11377993Y5287250D1*
X11435287Y5298813D1*
X11449753Y5299490D1*
X11464150Y5297900D1*
X11478090Y5294083D1*
X11505730Y5296873D1*
X11519807Y5296507D1*
X11542743Y5294097D1*
X11556577Y5297900D1*
X11570970Y5299490D1*
X11585437Y5298813D1*
X11644780Y5286803D1*
X11702603Y5268857D1*
X11758317Y5245160D1*
X11811347Y5215950D1*
X11861157Y5181533D1*
X11907233Y5142257D1*
X11925413Y5123517D1*
X11945503Y5105257D1*
X11954650Y5094550D1*
X12018757Y5006103D1*
X12025477Y4993723D1*
X12069797Y4893883D1*
X12073797Y4880380D1*
X12096387Y4773503D1*
X12097490Y4759463D1*
X12097370Y4650227D1*
X12095530Y4636263D1*
X12072700Y4529440D1*
X12067997Y4516163D1*
X12022360Y4414340D1*
X12002380Y4385537D1*
X11951787Y4316110D1*
X11942093Y4305893D1*
X11925500Y4290953D1*
X11905660Y4270747D1*
X11859453Y4231637D1*
X11809530Y4197397D1*
X11802600Y4193540D1*
X13173983Y4193577D1*
X13427733Y4447297D1*
X13427750Y6633603D1*
X12997767Y6633797D1*
X12971383Y6639343D1*
X12964730Y6642730D1*
X12944587Y6656657D1*
X12939740Y6662333D1*
X12926473Y6682900D1*
X12924167Y6689997D1*
X12919750Y6715327D1*
Y7141617D1*
X11787293Y7141577D1*
X11801573Y7133080D1*
X11850957Y7098063D1*
X11896547Y7058237D1*
X11917890Y7037027D1*
X11934410Y7021120D1*
X12000193Y6931047D1*
X12006483Y6921083D1*
X12052103Y6819300D1*
X12056183Y6808247D1*
X12079643Y6699203D1*
X12081337Y6687540D1*
X12081613Y6576003D1*
X12080847Y6564247D1*
X12057927Y6455087D1*
X12054733Y6443747D1*
X12009617Y6341737D1*
X12004133Y6331310D1*
X11938797Y6240910D1*
X11931267Y6231850D1*
X11909623Y6211990D1*
X11889783Y6191783D1*
X11843577Y6152673D1*
X11795447Y6119460D1*
X11740523Y6089413D1*
X11684733Y6065913D1*
X11626853Y6048173D1*
X11569560Y6036610D1*
X11555093Y6035933D1*
X11540700Y6037523D1*
X11526813Y6041323D1*
X11499247Y6038550D1*
X11485170Y6038917D1*
X11462233Y6041327D1*
X11448270Y6037523D1*
X11433877Y6035933D1*
X11419410Y6036610D1*
X11360070Y6048620D1*
X11302247Y6066567D1*
X11246533Y6090263D1*
X11193500Y6119473D1*
X11143690Y6153890D1*
X11097617Y6193167D1*
X11078683Y6212700D1*
X11054690Y6235340D1*
X11044380Y6249060D1*
X11057197Y6222753D1*
X11077763Y6162757D1*
X11090320Y6100587D1*
X11094427Y6043093D1*
X11094730Y5892413D1*
X11095843Y5879393D1*
X11099223Y5866780D1*
X11104720Y5855633D1*
X11112667Y5845277D1*
X11122013Y5837080D1*
X11133320Y5830553D1*
X11145087Y5826557D1*
X11158033Y5824853D1*
X11230000Y5824490D1*
X12138817D1*
X12156810Y5845513D1*
X12178800Y5864293D1*
X12203457Y5879403D1*
X12230173Y5890470D1*
X12258293Y5897220D1*
X12263850Y5897880D1*
X12269303Y5914193D1*
X12313847Y6013937D1*
X12321203Y6025943D1*
X12385513Y6114247D1*
X12395207Y6124463D1*
X12410987Y6138673D1*
X12431513Y6159610D1*
X12477720Y6198720D1*
X12527643Y6232960D1*
X12580773Y6261980D1*
X12636560Y6285480D1*
X12694440Y6303220D1*
X12751733Y6314783D1*
X12766200Y6315460D1*
X12780593Y6313870D1*
X12794537Y6310053D1*
X12822177Y6312843D1*
X12836253Y6312477D1*
X12859190Y6310067D1*
X12873023Y6313870D1*
X12887417Y6315460D1*
X12901883Y6314783D1*
X12961227Y6302773D1*
X13019050Y6284827D1*
X13074763Y6261130D1*
X13127797Y6231920D1*
X13177603Y6197503D1*
X13223680Y6158227D1*
X13241860Y6139487D1*
X13261950Y6121227D1*
X13271097Y6110520D1*
X13335203Y6022073D1*
X13341923Y6009693D1*
X13386243Y5909853D1*
X13390243Y5896350D1*
X13412833Y5789473D1*
X13413937Y5775433D1*
X13413817Y5666197D1*
X13411977Y5652233D1*
X13389143Y5545410D1*
X13384443Y5532133D1*
X13339900Y5432390D1*
X13332543Y5420383D1*
X13268233Y5332080D1*
X13258540Y5321863D1*
X13241947Y5306923D1*
X13222107Y5286717D1*
X13175900Y5247607D1*
X13125977Y5213367D1*
X13072847Y5184347D1*
X13017057Y5160847D1*
X12959177Y5143107D1*
X12901883Y5131543D1*
X12887417Y5130867D1*
X12873023Y5132457D1*
X12859137Y5136257D1*
X12829223Y5133390D1*
X12787653Y5134097D1*
X12773430Y5131380D1*
X12758953Y5130920D1*
X12744587Y5132733D1*
X12685403Y5145460D1*
X12627807Y5164100D1*
X12572390Y5188470D1*
X12519720Y5218313D1*
X12470340Y5253330D1*
X12424747Y5293157D1*
X12403533Y5314367D1*
X12387013Y5330273D1*
X12321230Y5420347D1*
X12314940Y5430310D1*
X12269463Y5531773D1*
X10771670Y6600810D2*
X10770510Y6620267D1*
X10772780Y6649097D1*
X10779530Y6677217D1*
X10790597Y6703933D1*
X10805707Y6728590D1*
X10824487Y6750580D1*
X10846477Y6769360D1*
X10871133Y6784470D1*
X10897850Y6795537D1*
X10925970Y6802287D1*
X10931527Y6802947D1*
X10936980Y6819260D1*
X10981523Y6919003D1*
X10988880Y6931010D1*
X11053190Y7019313D1*
X11062883Y7029530D1*
X11078667Y7043740D1*
X11099190Y7064677D1*
X11145397Y7103787D1*
X11195320Y7138027D1*
X11201500Y7141577D1*
X10291957D1*
X10285407Y7107713D1*
X10271597Y7083007D1*
X10226807Y7006593D1*
X10205377Y6988103D1*
X10137153Y6931617D1*
X10110693Y6921570D1*
X10027267Y6891827D1*
X9998967Y6891437D1*
X9910397Y6892020D1*
X9883667Y6901330D1*
X9800640Y6932170D1*
X9778710Y6950063D1*
X9711237Y7007440D1*
X9696747Y7031753D1*
X9652967Y7108750D1*
X9646763Y7141667D1*
X7784417Y7141893D1*
X7777860Y7108030D1*
X7764050Y7083323D1*
X7726043Y7017493D1*
X8059383Y7017520D1*
X8077693Y7038803D1*
X8099683Y7057583D1*
X8124340Y7072693D1*
X8151057Y7083760D1*
X8179177Y7090510D1*
X8208007Y7092780D1*
X8236837Y7090510D1*
X8264957Y7083760D1*
X8291673Y7072693D1*
X8316330Y7057583D1*
X8338320Y7038803D1*
X8357100Y7016813D1*
X8372210Y6992157D1*
X8383277Y6965440D1*
X8390027Y6937320D1*
X8392297Y6908490D1*
X8391730Y6794030D1*
X8387203Y6765470D1*
X8378270Y6737967D1*
X8365140Y6712200D1*
X8348143Y6688803D1*
X8340737Y6680793D1*
X8557707Y6680767D1*
X8541513Y6700167D1*
X8526403Y6724823D1*
X8515337Y6751540D1*
X8508587Y6779660D1*
X8506317Y6808490D1*
Y6908490D1*
X8508587Y6937320D1*
X8515337Y6965440D1*
X8526403Y6992157D1*
X8541513Y7016813D1*
X8560293Y7038803D1*
X8582283Y7057583D1*
X8606940Y7072693D1*
X8633657Y7083760D1*
X8661777Y7090510D1*
X8690607Y7092780D1*
X8719437Y7090510D1*
X8747557Y7083760D1*
X8774273Y7072693D1*
X8798930Y7057583D1*
X8820920Y7038803D1*
X8838967Y7017747D1*
X9261747Y7017780D1*
Y6699200D1*
X8839050D1*
X8823337Y6680793D1*
X9503390Y6680790D1*
X9501920Y6699450D1*
X9503390Y6718110D1*
X9507760Y6736313D1*
X9514923Y6753607D1*
X9524703Y6769567D1*
X9536860Y6783800D1*
X9551093Y6795957D1*
X9567053Y6805737D1*
X9584347Y6812900D1*
X9602550Y6817270D1*
X9621210Y6818740D1*
X9639870Y6817270D1*
X9658073Y6812900D1*
X9675367Y6805737D1*
X9691327Y6795957D1*
X9705560Y6783800D1*
X9717717Y6769567D1*
X9727497Y6753607D1*
X9734660Y6736313D1*
X9739030Y6718110D1*
X9740500Y6699450D1*
X9739030Y6680790D1*
X9734660Y6662587D1*
X9729383Y6649380D1*
X9727590Y6625620D1*
X9722460Y6600767D1*
X10771457D1*
X7820297Y6698940D2*
X7669940D1*
X7669923Y6680687D1*
X8075180Y6680767D1*
X8059857Y6698970D1*
X7820307Y6699030D1*
X5534390Y7141813D2*
X5534757Y6664827D1*
X5545000Y6694400D1*
X5559013Y6722387D1*
X5576563Y6748303D1*
X5597343Y6771707D1*
X5621003Y6792200D1*
X5647133Y6809430D1*
X5675287Y6823100D1*
X5704987Y6832980D1*
X5735720Y6838900D1*
X5758387Y6840533D1*
X6223523Y6840767D1*
X6223503Y7023767D1*
X6446503Y7024187D1*
Y7040767D1*
X6665083D1*
Y7023760D1*
X6686487Y7023767D1*
X6686503Y7040767D1*
X6783547D1*
X6792433Y7060737D1*
X6804707Y7083513D1*
X6818743Y7104250D1*
X6840767Y7129647D1*
X6854220Y7141890D1*
X5534407Y7141900D1*
X6446453Y6253263D2*
X6432533Y6253703D1*
X6407660Y6257643D1*
X6383710Y6265427D1*
X6361270Y6276860D1*
X6345110Y6288340D1*
X6345083Y6200830D1*
X6446510Y6200767D1*
X6446503Y6253197D1*
X6345110Y6539060D2*
X6361270Y6550540D1*
X6383710Y6561973D1*
X6407660Y6569757D1*
X6432533Y6573697D1*
X6457720D1*
X6482593Y6569757D1*
X6506543Y6561973D1*
X6528983Y6550540D1*
X6549357Y6535737D1*
X6567163Y6517930D1*
X6581967Y6497557D1*
X6593400Y6475117D1*
X6601183Y6451167D1*
X6603227Y6440883D1*
X6623290Y6443267D1*
X6659550Y6443850D1*
X6685710D1*
X6685693Y6588477D1*
X6678990Y6608370D1*
X6676060Y6626857D1*
Y6645577D1*
X6678990Y6664063D1*
X6684773Y6681867D1*
X6685860Y6684227D1*
X6685980Y6719263D1*
X6665083Y6718767D1*
Y6702187D1*
X6446503D1*
Y6719193D1*
X6345103Y6719187D1*
X6345083Y6539243D1*
X11034403Y4363580D2*
X11034370Y4363627D1*
X12350850Y5379550D2*
X12350817Y5379597D1*
X6685707Y6588540D2*
X6681533Y6599353D1*
X6677163Y6617557D1*
X6675693Y6636217D1*
X6677163Y6654877D1*
X6681533Y6673080D1*
X6685860Y6684227D1*
X7779597Y7017430D2*
D14*
Y6699030D1*
X9112457Y7017690D2*
Y6699290D1*
Y6858490D2*
X9261657D1*
X6475793Y6200677D2*
Y5862277D1*
X6635793Y6031477D2*
Y5862277D1*
X6555793Y7040677D2*
Y6702277D1*
D21*
X3381497Y5080287D3*
Y6159787D3*
X1587437Y5112037D3*
Y6191537D3*
X1952597Y4715140D3*
X3032097D3*
X1952630Y6525067D3*
X3032130D3*
X8921623Y5635827D3*
X7842123D3*
X4921557Y5651867D3*
X6001057D3*
X12050177Y4699230D3*
X10970677D3*
X13366623Y5715200D3*
X12287123D3*
X10700710Y5715310D3*
X9621210D3*
X12034300Y6620267D3*
X10954800D3*
D24*
X7779597Y6858230D3*
X7969597D3*
X9112457Y6858490D3*
X8922457D3*
D25*
X5350100Y6890243D3*
D26*
X5096100D3*
X4842100D3*
X4588100D3*
X4334100D3*
D27*
X7239530D3*
X7064887Y7096640D3*
X6445127Y6413700D3*
D28*
X7509433Y6810860D3*
D30*
X6315793Y6031477D3*
X6395793D3*
X6475793D3*
X6555793D3*
X6635793D3*
X6715793D3*
X6795793D3*
X6875793D3*
D31*
X7015793Y6171477D3*
Y6251477D3*
Y6331477D3*
Y6411477D3*
Y6491477D3*
Y6571477D3*
Y6651477D3*
Y6731477D3*
D30*
X6875793Y6871477D3*
X6795793D3*
X6715793D3*
X6635793D3*
X6555793D3*
X6475793D3*
X6395793D3*
X6315793D3*
D31*
X6175793Y6731477D3*
Y6651477D3*
Y6571477D3*
Y6491477D3*
Y6411477D3*
Y6331477D3*
Y6251477D3*
Y6171477D3*
D32*
X8690607Y6858490D3*
X8208007D3*
X3540229Y6080401D2*
D14*
Y5239130D1*
X3063932Y5985206D2*
X3064048Y5366056D1*
X3302197Y5143807D2*
Y6001072D1*
X3381580Y5223264D2*
Y6096395D1*
X3778378Y5318459D2*
Y5762957D1*
X3222814Y6080401D2*
Y5254995D1*
X2889406Y5683628D2*
G02X3889514Y5683628I500054J-77299D01*
G01*
X3698995Y6001072D2*
Y5334324D1*
X3460847Y6001072D2*
Y5143807D1*
X3619612Y5191404D2*
Y5953474D1*
X3889514Y5556573D2*
G02X2889406Y5556573I-500054J77299D01*
G01*
X3143431Y5191404D2*
Y5953474D1*
X2984666Y5334324D2*
Y5747091D1*
X1746169Y6112151D2*
Y5270880D1*
X1269872Y6016956D2*
X1269988Y5397806D1*
X1508137Y5175557D2*
Y6032822D1*
X1587520Y5255014D2*
Y6128145D1*
X1984318Y5350209D2*
Y5794707D1*
X1428754Y6112151D2*
Y5286745D1*
X1095346Y5715378D2*
G02X2095454Y5715378I500054J-77299D01*
G01*
X1904935Y6032822D2*
Y5366074D1*
X1666787Y6032822D2*
Y5175557D1*
X1825552Y5223154D2*
Y5985224D1*
X2095454Y5588323D2*
G02X1095346Y5588323I-500054J77299D01*
G01*
X1349371Y5223154D2*
Y5985224D1*
X1190606Y5366074D2*
Y5778841D1*
X2952711Y4556407D2*
X2111440D1*
X2857516Y5032704D2*
X2238366Y5032588D1*
X2016117Y4794440D2*
X2873382D1*
X2095574Y4715057D2*
X2968705D1*
X2190769Y4318259D2*
X2635267D1*
X2952711Y4873823D2*
X2127305D1*
X2555938Y5207231D2*
G02X2555938Y4207123I-77299J-500054D01*
G01*
X2873382Y4397642D2*
X2206634D1*
X2873382Y4635790D2*
X2016117D1*
X2063714Y4477024D2*
X2825784D1*
X2428883Y4207123D2*
G02X2428883Y5207231I77299J500054D01*
G01*
X2063714Y4953205D2*
X2825784D1*
X2206634Y5111971D2*
X2619401D1*
X2952744Y6366334D2*
X2111473D1*
X2857549Y6842631D2*
X2238399Y6842515D1*
X2016150Y6604366D2*
X2873415D1*
X2095607Y6524984D2*
X2968738D1*
X2190802Y6128185D2*
X2635300D1*
X2952744Y6683749D2*
X2127339D1*
X2555971Y7017157D2*
G02X2555971Y6017049I-77299J-500054D01*
G01*
X2873415Y6207568D2*
X2206668D1*
X2873415Y6445717D2*
X2016150D1*
X2063747Y6286951D2*
X2825818D1*
X2428917Y6017049D2*
G02X2428917Y7017157I77299J500054D01*
G01*
X2063747Y6763132D2*
X2825818D1*
X2206668Y6921898D2*
X2619434D1*
X7921509Y5794559D2*
X8762780D1*
X8016704Y5318262D2*
X8635854Y5318378D1*
X8858103Y5556527D2*
X8000838D1*
X8778646Y5635910D2*
X7905515D1*
X8683451Y6032708D2*
X8238953D1*
X7921509Y5477144D2*
X8746915D1*
X8318282Y5143736D2*
G02X8318282Y6143844I77299J500054D01*
G01*
X8000838Y5953325D2*
X8667586D1*
X8000838Y5715177D2*
X8858103D1*
X8810506Y5873942D2*
X8048436D1*
X8445337Y6143844D2*
G02X8445337Y5143736I-77299J-500054D01*
G01*
X8810506Y5397761D2*
X8048436D1*
X8667586Y5238996D2*
X8254819D1*
X5921671Y5493134D2*
X5080400D1*
X5826476Y5969431D2*
X5207326Y5969315D1*
X4985077Y5731166D2*
X5842342D1*
X5064534Y5651784D2*
X5937665D1*
X5159729Y5254985D2*
X5604227D1*
X5921671Y5810549D2*
X5096265D1*
X5524898Y6143957D2*
G02X5524898Y5143849I-77299J-500054D01*
G01*
X5842342Y5334368D2*
X5175594D1*
X5842342Y5572517D2*
X4985077D1*
X5032674Y5413751D2*
X5794744D1*
X5397843Y5143849D2*
G02X5397843Y6143957I77299J500054D01*
G01*
X5032674Y5889932D2*
X5794744D1*
X5175594Y6048698D2*
X5588361D1*
X11050063Y4857963D2*
X11891334D1*
X11145257Y4381666D2*
X11764407Y4381782D1*
X11986657Y4619930D2*
X11129392D1*
X11907200Y4699313D2*
X11034069D1*
X11812005Y5096111D2*
X11367507D1*
X11050063Y4540547D2*
X11875468D1*
X11446836Y4207139D2*
G02X11446836Y5207247I77299J500054D01*
G01*
X11129392Y5016728D2*
X11796139D1*
X11129392Y4778580D2*
X11986657D1*
X11939059Y4937346D2*
X11176989D1*
X11573890Y5207247D2*
G02X11573890Y4207139I-77299J-500054D01*
G01*
X11939059Y4461165D2*
X11176989D1*
X11796139Y4302399D2*
X11383372D1*
X12366509Y5873933D2*
X13207780D1*
X12461704Y5397636D2*
X13080854Y5397752D1*
X13303103Y5635900D2*
X12445838D1*
X13223646Y5715283D2*
X12350515D1*
X13128451Y6112081D2*
X12683953D1*
X12366509Y5556517D2*
X13191915D1*
X12763282Y5223109D2*
G02X12763282Y6223217I77299J500054D01*
G01*
X12445838Y6032698D2*
X13112586D1*
X12445838Y5794550D2*
X13303103D1*
X13255506Y5953316D2*
X12493436D1*
X12890337Y6223217D2*
G02X12890337Y5223109I-77299J-500054D01*
G01*
X13255506Y5477135D2*
X12493436D1*
X13112586Y5318369D2*
X12699819D1*
X9700596Y5874043D2*
X10541867D1*
X9795791Y5397746D2*
X10414941Y5397862D1*
X10637190Y5636010D2*
X9779925D1*
X10557733Y5715393D2*
X9684602D1*
X10462538Y6112191D2*
X10018040D1*
X9700596Y5556627D2*
X10526001D1*
X10097369Y5223219D2*
G02X10097369Y6223327I77299J500054D01*
G01*
X9779925Y6032808D2*
X10446672D1*
X9779925Y5794660D2*
X10637190D1*
X10589593Y5953426D2*
X9827522D1*
X10224423Y6223327D2*
G02X10224423Y5223219I-77299J-500054D01*
G01*
X10589593Y5477245D2*
X9827522D1*
X10446672Y5318479D2*
X10033906D1*
X11034186Y6778999D2*
X11875457D1*
X11129381Y6302702D2*
X11748531Y6302818D1*
X11970780Y6540967D2*
X11113515D1*
X11891323Y6620350D2*
X11018192D1*
X11796128Y7017148D2*
X11351630D1*
X11034186Y6461584D2*
X11859591D1*
X11430959Y6128176D2*
G02X11430959Y7128284I77299J500054D01*
G01*
X11113515Y6937765D2*
X11780262D1*
X11113515Y6699617D2*
X11970780D1*
X11923183Y6858382D2*
X11161112D1*
X11558013Y7128284D2*
G02X11558013Y6128176I-77299J-500054D01*
G01*
X11923183Y6382201D2*
X11161112D1*
X11780262Y6223436D2*
X11367496D1*
G04 Top Clear*
%LPC*%
D19*
X4238500Y3093407D3*
X4127377Y3428873D3*
X7286500Y2778000D3*
X9621210Y3587623D3*
X6004727Y3059650D3*
X6020110Y3219650D3*
X6143500Y2920873D3*
X6795793Y2651983D3*
X6875793Y2746250D3*
X6794983Y3524390D3*
D3*
X9207373Y2905000D3*
X10683750Y3000250D3*
X11382250Y2730373D3*
X10239250Y3667000D3*
X10794873Y1127000D3*
X9239127Y1952500D3*
X7779337Y3572020D3*
X9112977Y3746663D3*
Y3572020D3*
X7779337Y3746663D3*
X8446157Y3794293D3*
Y3587897D3*
Y4000690D3*
X2476373Y2603373D3*
X1920750Y3095500D3*
X2063627Y2095373D3*
X2889127Y2095377D3*
X1158750Y3460627D3*
X6556833Y3508513D3*
X6382190Y3111597D3*
X3016125Y3032000D3*
X3873373Y3397127D3*
X5365627Y3492373D3*
X12541127Y1539750D3*
X6556250Y2571623D3*
X6984873Y1127000D3*
X6381627D3*
X7619873D3*
X7461127Y3032000D3*
X7143627Y2920877D3*
X12461750Y3333623D3*
X5524373Y3524127D3*
X1111127Y1365127D3*
X1650873Y3968627D3*
X6762627Y4000373D3*
X5572000D3*
X6191127D3*
X12842750Y3968627D3*
X13366627Y3476500D3*
X13128500Y1127000D3*
X13382500Y1396873D3*
X1381000Y1111123D3*
X3206627Y1111127D3*
X4778250Y1952500D3*
X8175500Y1904873D3*
X5683127Y1889000D3*
X6937250Y2222373D3*
X2476373Y2317627D3*
D15*
X3381497Y1968460D3*
Y3047960D3*
X1587437Y2000210D3*
Y3079710D3*
X1952597Y1603313D3*
X3032097D3*
X1952630Y3413240D3*
X3032130D3*
X8921623Y2524000D3*
X7842123D3*
X4921557Y2540040D3*
X6001057D3*
X12050177Y1587403D3*
X10970677D3*
X13366623Y2603373D3*
X12287123D3*
X10700710Y2603483D3*
X9621210D3*
X12034300Y3508440D3*
X10954800D3*
D34*
X5350100Y3778417D3*
X5096100D3*
X4842100D3*
X4588100D3*
X4334100D3*
D35*
X7239530D3*
X7064887Y3984813D3*
X6445127Y3301873D3*
X7509433Y3699033D3*
D15*
X8690607Y3746663D3*
X8208007D3*
D19*
X4238500Y6205233D3*
X4127377Y6540700D3*
X7286500Y5889827D3*
X9621210Y6699450D3*
X6004727Y6171477D3*
X6020110Y6331477D3*
X6143500Y6032700D3*
X6795793Y5763810D3*
X6875793Y5858077D3*
X6794983Y6636217D3*
D3*
X9207373Y6016827D3*
X10683750Y6112077D3*
X11382250Y5842200D3*
X10239250Y6778827D3*
X10794873Y4238827D3*
X9239127Y5064327D3*
X7779337Y6683847D3*
X9112977Y6858490D3*
Y6683847D3*
X7779337Y6858490D3*
X8446157Y6906120D3*
Y6699723D3*
Y7112517D3*
X2476373Y5715200D3*
X1920750Y6207327D3*
X2063627Y5207200D3*
X2889127Y5207203D3*
X1158750Y6572453D3*
X6556833Y6620340D3*
X6382190Y6223423D3*
X3016125Y6143827D3*
X3873373Y6508953D3*
X5365627Y6604200D3*
X12541127Y4651577D3*
X6556250Y5683450D3*
X6984873Y4238827D3*
X6381627D3*
X7619873D3*
X7461127Y6143827D3*
X7143627Y6032703D3*
X12461750Y6445450D3*
X5524373Y6635953D3*
X1111127Y4476953D3*
X1650873Y7080453D3*
X6762627Y7112200D3*
X5572000D3*
X6191127D3*
X12842750Y7080453D3*
X13366627Y6588327D3*
X13128500Y4238827D3*
X13382500Y4508700D3*
X1381000Y4222950D3*
X3206627Y4222953D3*
X4778250Y5064327D3*
X8175500Y5016700D3*
X5683127Y5000827D3*
X6937250Y5334200D3*
X2476373Y5429453D3*
D15*
X3381497Y5080287D3*
Y6159787D3*
X1587437Y5112037D3*
Y6191537D3*
X1952597Y4715140D3*
X3032097D3*
X1952630Y6525067D3*
X3032130D3*
X8921623Y5635827D3*
X7842123D3*
X4921557Y5651867D3*
X6001057D3*
X12050177Y4699230D3*
X10970677D3*
X13366623Y5715200D3*
X12287123D3*
X10700710Y5715310D3*
X9621210D3*
X12034300Y6620267D3*
X10954800D3*
D34*
X5350100Y6890243D3*
X5096100D3*
X4842100D3*
X4588100D3*
X4334100D3*
D35*
X7239530D3*
X7064887Y7096640D3*
X6445127Y6413700D3*
X7509433Y6810860D3*
D15*
X8690607Y6858490D3*
X8208007D3*
M02*
